<?xml version="1.0" standalone="no"?>
<!DOCTYPE svg PUBLIC "-//W3C//DTD SVG 1.1//EN" "http://www.w3.org/Graphics/SVG/1.1/DTD/svg11.dtd" >
<svg xmlns="http://www.w3.org/2000/svg" xmlns:xlink="http://www.w3.org/1999/xlink" version="1.1">
<metadata>
Created by FontForge 20170731 at Wed Dec 26 16:27:19 2018
 By Aleksey,,,
Copyright (c) 2018 by Vladimir Nikolic. All rights reserved.
</metadata>
<defs>
<font id="Locator-Regular" horiz-adv-x="618" >
  <font-face 
    font-family="Locator"
    font-weight="400"
    font-stretch="normal"
    units-per-em="1000"
    panose-1="0 0 0 0 0 0 0 0 0 0"
    ascent="750"
    descent="-250"
    x-height="662"
    cap-height="668"
    bbox="17 -83 800 669"
    underline-thickness="50"
    underline-position="-150"
    unicode-range="U+000D-007A"
  />
<missing-glyph horiz-adv-x="374" 
 />
    <glyph glyph-name=".notdef" horiz-adv-x="374" 
 />
    <glyph glyph-name=".null" horiz-adv-x="0" 
 />
    <glyph glyph-name="nonmarkingreturn" unicode="&#xd;" horiz-adv-x="374" 
 />
    <glyph glyph-name="NULL" horiz-adv-x="0" 
 />
    <glyph glyph-name="NULL" horiz-adv-x="0" 
 />
    <glyph glyph-name="space" unicode=" " horiz-adv-x="392" 
 />
    <glyph glyph-name="exclam" unicode="!" horiz-adv-x="240" 
d="M36 0v167h168v-167h-168zM36 668h168v-459h-168v459z" />
    <glyph glyph-name="comma" unicode="," horiz-adv-x="209" 
d="M23 168h167v-83q0 -35 -13 -65.5t-36 -53t-53.5 -36t-64.5 -13.5v251z" />
    <glyph glyph-name="period" unicode="." horiz-adv-x="207" 
d="M18 0v167h168v-167h-168z" />
    <glyph glyph-name="zero" unicode="0" horiz-adv-x="637" 
d="M448 669q34 0 64.5 -13t53.5 -36t36 -53.5t13 -64.5v-335q0 -35 -13 -65t-36 -53t-53.5 -36t-64.5 -13h-250q-35 0 -65.5 13t-53 36t-36 53t-13.5 65v335q0 34 13.5 64.5t36 53.5t53 36t65.5 13h229v-167h-229v-335h250v502z" />
    <glyph glyph-name="one" unicode="1" horiz-adv-x="318" 
d="M30 669h251v-669h-167v501h-84v168z" />
    <glyph glyph-name="two" unicode="2" horiz-adv-x="630" 
d="M223 167h373v-167h-373v167zM429 668q34 0 64.5 -13t53.5 -36t36 -53.5t13 -64.5v-84q0 -35 -13 -65t-36 -53t-53.5 -36t-64.5 -13h-227v-250h-167v250q0 34 13 64.5t36 53.5t53 36t65 13h227v84h-394v167h394z" />
    <glyph glyph-name="three" unicode="3" horiz-adv-x="603" 
d="M400 668q34 0 64.5 -13t53.5 -36t36 -53.5t13 -64.5v-102q0 -11 -3.5 -22t-8.5 -21q-28 42 -70.5 62t-91.5 20q7 17 7 38v25h-366v167h366zM400 417q35 0 65.5 -13t53 -35.5t35.5 -53t13 -65.5v-83q0 -35 -13 -65t-36 -53t-53.5 -36t-64.5 -13h-366v167h366v26.5t-3.5 27
t-13 21t-27.5 8.5h-236v167h280z" />
    <glyph glyph-name="four" unicode="4" horiz-adv-x="565" 
d="M369 229h170v-229h-170v229zM372 668h167v-418h-356q-35 0 -65 13.5t-52.5 36t-35.5 53t-13 64.5v251h166v-251h189v251z" />
    <glyph glyph-name="five" unicode="5" horiz-adv-x="616" 
d="M207 669h377v-168h-362v168h-15zM417 418q34 0 64.5 -13t53.5 -36t36 -53.5t13 -64.5v-86q0 -34 -13.5 -64t-36.5 -52.5t-53 -35.5t-64 -13h-383v167h383v84h-383v418h167v-251h216z" />
    <glyph glyph-name="six" unicode="6" horiz-adv-x="578" 
d="M389 418q33 0 63.5 -13t53.5 -35.5t36.5 -52.5t13.5 -64v-65h-167v62h-192v-83h359q2 -34 -11.5 -64.5t-37 -53t-54.5 -36t-64 -13.5h-192q-35 0 -65 13t-53 36t-36 53t-13 65v334q0 34 13 64.5t36 53.5t53 36t65 13h353v-167h-353v-83h192z" />
    <glyph glyph-name="seven" unicode="7" horiz-adv-x="504" 
d="M244 480h189l-145 -480h-186zM20 501v168h471l-51 -168h-420z" />
    <glyph glyph-name="eight" unicode="8" horiz-adv-x="616" 
d="M420 668q34 0 64 -13t53 -35t36.5 -52t13.5 -64v-89q0 -31 -12 -59q-26 38 -67 60t-88 22v63h-221v-83h221q34 0 64 -13t53 -35.5t36.5 -52.5t13.5 -64v-89q0 -34 -13.5 -64t-36.5 -52t-53 -35t-64 -13h-221q-35 0 -65 13t-53 36t-36 53t-13 65v83q0 32 12 62
q26 -38 67 -60.5t88 -22.5v-62h221v83h-137h-84q-35 0 -65 13.5t-53 36.5t-36 53.5t-13 64.5v83q0 34 13 64.5t36 53.5t53 36t65 13h221z" />
    <glyph glyph-name="nine" unicode="9" horiz-adv-x="580" 
d="M559 250h-1l1 -83q0 -35 -13 -65t-36 -53t-53.5 -36t-64.5 -13h-362v167h362v334h-202v-113h179v-167h-179q-34 0 -64 13t-53 35.5t-36.5 52.5t-13.5 64v118q0 34 13.5 64t36.5 52t53 35t64 13h202q34 0 64.5 -13t53.5 -36t36 -53.5t13 -64.5v-251z" />
    <glyph glyph-name="colon" unicode=":" horiz-adv-x="215" 
d="M23 0v167h168v-167h-168zM23 497v167h168v-167h-168z" />
    <glyph glyph-name="semicolon" unicode=";" horiz-adv-x="213" 
d="M26 168h167v-83q0 -35 -13 -65.5t-36 -53t-53.5 -36t-64.5 -13.5v251zM20 664h168v-167h-168v167z" />
    <glyph glyph-name="question" unicode="?" horiz-adv-x="561" 
d="M146 166h167v-166h-167v166zM372 668q34 0 65 -13t53.5 -36t36 -53.5t13.5 -64.5v-84q0 -35 -13.5 -65t-36 -53t-53.5 -36t-65 -13h-59v-42h-167v42q0 34 13 64.5t36 53.5t53 36t65 13h59v84h-351v167h351z" />
    <glyph glyph-name="A" unicode="A" horiz-adv-x="656" 
d="M448 669q34 0 64.5 -13.5t53.5 -36t36 -53.5t13 -65v-501h-167v167h-168h-79q-35 0 -65 13t-53 36t-36 53t-13 65v167q0 34 13 65t36 53.5t53 36t65 13.5h247zM448 501h-247v-167h247v167zM34 248q24 -47 69 -74.5t98 -27.5v-146h-167v248z" />
    <glyph glyph-name="B" unicode="B" horiz-adv-x="666" 
d="M467 418q35 0 65.5 -13.5t53 -36t35.5 -53.5t13 -65v-83q0 -35 -13 -65.5t-35.5 -53t-53 -35.5t-65.5 -13h-429v418h429zM467 206q0 18 -13 31t-31 13h-218v-83h262v39zM467 668q34 0 64.5 -13t53.5 -36t36 -53.5t13 -64.5v-101q0 -11 -3 -22t-8 -22q-28 42 -70 62
t-92 20q7 19 7 35q0 7 -0.5 14t-0.5 14h-262v-63h-167v230h429z" />
    <glyph glyph-name="C" unicode="C" horiz-adv-x="546" 
d="M26 501q0 34 13.5 64.5t36 53.5t53 36t65.5 13h315v-167h-483zM514 0h-320q-35 0 -65.5 13t-53 35.5t-36 53t-13.5 65.5v315h168v-315l319 1v-1z" />
    <glyph glyph-name="D" unicode="D" horiz-adv-x="611" 
d="M204 668v-501h222v334h-201v167h201q34 0 64.5 -13t53.5 -36t36 -53.5t13 -64.5v-334q0 -35 -13 -65t-36 -53t-53.5 -36t-64.5 -13h-389v668h167z" />
    <glyph glyph-name="E" unicode="E" horiz-adv-x="542" 
d="M203 250v-83h319v-167h-486v418h439v-168h-272zM36 669h486v-168h-319v-62h-167v230z" />
    <glyph glyph-name="F" unicode="F" horiz-adv-x="527" 
d="M510 669v-167h-311v-84h269v-167h-269q-35 0 -65 13t-53 36t-36 53t-13 65v251h478zM32 332q24 -47 69.5 -74.5t97.5 -27.5v-230h-167v332z" />
    <glyph glyph-name="G" unicode="G" horiz-adv-x="605" 
d="M303 423h277v-256q0 -35 -13 -65t-36 -53t-53.5 -36t-64.5 -13h-220q-35 0 -65 13t-53 36t-36 53t-13 65v334q0 34 13 64.5t36 53.5t53 36t65 13h392v-167h-392v-334h220v89h-110v167z" />
    <glyph glyph-name="H" unicode="H" 
d="M421 409v259h167v-668h-167v242h-201v167h201zM32 0v668h167v-668h-167z" />
    <glyph glyph-name="I" unicode="I" horiz-adv-x="256" 
d="M44 0v668h167v-668h-167z" />
    <glyph glyph-name="J" unicode="J" horiz-adv-x="458" 
d="M184 167q35 0 59.5 24t24.5 59v419h166v-419q0 -52 -19.5 -97.5t-53.5 -79.5t-79.5 -53.5t-97.5 -19.5h-157v167h157zM247 501h-219v168h219v-168z" />
    <glyph glyph-name="K" unicode="K" horiz-adv-x="633" 
d="M369 334q63 0 108.5 -19t75 -53t43 -80.5t13.5 -101.5v-80h-168v123q0 18 -13 31t-31 13h-195v-167h-167v668h167v-334h167zM371 350h-149v168h177q18 0 31 13t13 31v106h168v-81q0 -55 -13.5 -99t-43 -74.5t-75 -47t-108.5 -16.5z" />
    <glyph glyph-name="L" unicode="L" horiz-adv-x="468" 
d="M451 167v-167h-411v669h166v-502h245z" />
    <glyph glyph-name="M" unicode="M" horiz-adv-x="834" 
d="M342 481h153v-481h-153v481zM206 499v-331v-168h-168v669h511q52 0 97.5 -20t79.5 -54t54 -79.5t20 -97.5v-418h-167v168v250q0 35 -24.5 59.5t-59.5 24.5z" />
    <glyph glyph-name="N" unicode="N" horiz-adv-x="660" 
d="M621 167v-167h-209q-35 0 -65 13t-53 36t-36 53t-13 65v83v251h-42v-501h-167v668h209q34 0 64.5 -13t53.5 -36t36 -53.5t13 -64.5v-83v-251h209zM454 668h167v-480h-167v480z" />
    <glyph glyph-name="O" unicode="O" horiz-adv-x="628" 
d="M432 669q34 0 64.5 -13t53.5 -36t36 -53.5t13 -64.5v-335q0 -35 -13 -65t-36 -53t-53.5 -36t-64.5 -13h-236q-35 0 -65.5 13t-53 36t-36 53t-13.5 65v335q0 34 13.5 64.5t36 53.5t53 36t65.5 13h215v-167h-215v-335h236v502z" />
    <glyph glyph-name="P" unicode="P" 
d="M431 668q34 0 64.5 -13t53.5 -36t36 -53.5t13 -64.5v-167q0 -35 -13 -65t-36 -53t-53.5 -36t-64.5 -13h-389v501h389zM431 501h-222v-167h222v167zM42 146h167v-146h-167v146z" />
    <glyph glyph-name="Q" unicode="Q" horiz-adv-x="633" 
d="M437 669q34 0 64.5 -13t53.5 -36t36 -53.5t13 -64.5v-335q0 -35 -13 -65t-36 -53t-53.5 -36t-64.5 -13h-36v-62h-167v62h-37q-35 0 -65.5 13t-53 36t-36 53t-13.5 65v335q0 34 13.5 64.5t36 53.5t53 36t65.5 13h219v-167h-219v-335h37v61h167v-61h36v502v0z" />
    <glyph glyph-name="R" unicode="R" 
d="M422 668q34 0 64.5 -13t53.5 -36t36 -53.5t13 -64.5v-167q0 -35 -13 -65t-36 -53t-53.5 -36t-64.5 -13h-221v-167h-167v167v33v468h388zM422 501h-221v-167h221v167zM448 150l141 -151l-215 3l-122 148h196z" />
    <glyph glyph-name="S" unicode="S" horiz-adv-x="584" 
d="M389 418q34 0 64.5 -13t53.5 -36t36 -53.5t13 -64.5v-86q0 -34 -13.5 -64t-36.5 -52.5t-53 -35.5t-64 -13h-359v167h359v84h-191q-35 0 -65.5 13t-53 36t-36 53t-13.5 65v83q0 35 13 65.5t36 53.5t53.5 36t65.5 13v-168v-83h25h166zM556 669v-168h-339v168h339z" />
    <glyph glyph-name="T" unicode="T" horiz-adv-x="516" 
d="M17 669h143v-167h-143v167zM501 669v-167h-153l-1 -502h-169l3 669h320z" />
    <glyph glyph-name="U" unicode="U" horiz-adv-x="622" 
d="M592 669v-502q0 -35 -13 -65t-36 -53t-53.5 -36t-64.5 -13h-227q-35 0 -65 13t-53 36t-36 53t-13 65v502h167v-502h227v502h167z" />
    <glyph glyph-name="V" unicode="V" horiz-adv-x="608" 
d="M576 669v-669h-295q-52 0 -97.5 20t-79.5 54t-53.5 79.5t-19.5 97.5l1 418h166v-418q0 -36 23 -53.5t55 -24.5t67.5 -7t61.5 1v502h171z" />
    <glyph glyph-name="W" unicode="W" horiz-adv-x="820" 
d="M487 188h-153v481h153v-481zM540 167q35 0 59 24.5t24 59.5v250v168h168v-418q0 -52 -20 -97.5t-54 -79.5t-79.5 -54t-97.5 -20h-260q-52 0 -97.5 20t-79.5 54t-54 79.5t-20 97.5v418h167v-168v-250q0 -35 24.5 -59.5t59.5 -24.5h260z" />
    <glyph glyph-name="X" unicode="X" horiz-adv-x="621" 
d="M348 344h-21v168h49q18 0 31 13t13 31v106h168v-81q0 -55 -13.5 -99t-43 -74.5t-75 -47t-108.5 -16.5zM203 662v-106q0 -18 13 -31t31 -13h49v-168h-21q-63 0 -108.5 16.5t-75 47t-43 74.5t-13.5 99v81h168zM275 318h21v-168h-49q-18 0 -31 -13t-13 -31v-106h-168v81
q0 55 13.5 99t43 74.5t75 47t108.5 16.5zM420 0v106q0 18 -13 31t-31 13h-49v168h21q63 0 108.5 -16.5t75 -47t43 -74.5t13.5 -99v-81h-168z" />
    <glyph glyph-name="Y" unicode="Y" horiz-adv-x="650" 
d="M443 668h167v-418h-404q-35 0 -65 13.5t-53 36t-36 53t-13 65.5v250h167v-250h237v250zM359 167q29 0 51 17.5t30 44.5h169q-4 -48 -25.5 -90t-55.5 -73t-77.5 -48.5t-91.5 -17.5h-309v167h309z" />
    <glyph glyph-name="Z" unicode="Z" horiz-adv-x="614" 
d="M34 501v168h545v-168h-545zM555 480l-307 -313h331v-167h-545v167l301 313h220z" />
    <glyph glyph-name="a" unicode="a" horiz-adv-x="656" 
d="M448 669q34 0 64.5 -13.5t53.5 -36t36 -53.5t13 -65v-501h-167v167h-168h-79q-35 0 -65 13t-53 36t-36 53t-13 65v167q0 34 13 65t36 53.5t53 36t65 13.5h247zM448 501h-247v-167h247v167zM34 248q24 -47 69 -74.5t98 -27.5v-146h-167v248z" />
    <glyph glyph-name="b" unicode="b" horiz-adv-x="666" 
d="M467 418q35 0 65.5 -13.5t53 -36t35.5 -53.5t13 -65v-83q0 -35 -13 -65.5t-35.5 -53t-53 -35.5t-65.5 -13h-429v418h429zM467 206q0 18 -13 31t-31 13h-218v-83h262v39zM467 668q34 0 64.5 -13t53.5 -36t36 -53.5t13 -64.5v-101q0 -11 -3 -22t-8 -22q-28 42 -70 62
t-92 20q7 19 7 35q0 7 -0.5 14t-0.5 14h-262v-63h-167v230h429z" />
    <glyph glyph-name="c" unicode="c" horiz-adv-x="546" 
d="M26 501q0 34 13.5 64.5t36 53.5t53 36t65.5 13h315v-167h-483zM514 0h-320q-35 0 -65.5 13t-53 35.5t-36 53t-13.5 65.5v315h168v-315l319 1v-1z" />
    <glyph glyph-name="d" unicode="d" horiz-adv-x="611" 
d="M204 668v-501h222v334h-201v167h201q34 0 64.5 -13t53.5 -36t36 -53.5t13 -64.5v-334q0 -35 -13 -65t-36 -53t-53.5 -36t-64.5 -13h-389v668h167z" />
    <glyph glyph-name="e" unicode="e" horiz-adv-x="542" 
d="M203 250v-83h319v-167h-486v418h439v-168h-272zM36 669h486v-168h-319v-62h-167v230z" />
    <glyph glyph-name="f" unicode="f" horiz-adv-x="527" 
d="M510 669v-167h-311v-84h269v-167h-269q-35 0 -65 13t-53 36t-36 53t-13 65v251h478zM32 332q24 -47 69.5 -74.5t97.5 -27.5v-230h-167v332z" />
    <glyph glyph-name="g" unicode="g" horiz-adv-x="605" 
d="M303 423h277v-256q0 -35 -13 -65t-36 -53t-53.5 -36t-64.5 -13h-220q-35 0 -65 13t-53 36t-36 53t-13 65v334q0 34 13 64.5t36 53.5t53 36t65 13h392v-167h-392v-334h220v89h-110v167z" />
    <glyph glyph-name="h" unicode="h" 
d="M421 409v259h167v-668h-167v242h-201v167h201zM32 0v668h167v-668h-167z" />
    <glyph glyph-name="i" unicode="i" horiz-adv-x="256" 
d="M44 0v668h167v-668h-167z" />
    <glyph glyph-name="j" unicode="j" horiz-adv-x="458" 
d="M184 167q35 0 59.5 24t24.5 59v419h166v-419q0 -52 -19.5 -97.5t-53.5 -79.5t-79.5 -53.5t-97.5 -19.5h-157v167h157zM247 501h-219v168h219v-168z" />
    <glyph glyph-name="k" unicode="k" horiz-adv-x="633" 
d="M369 334q63 0 108.5 -19t75 -53t43 -80.5t13.5 -101.5v-80h-168v123q0 18 -13 31t-31 13h-195v-167h-167v668h167v-334h167zM371 350h-149v168h177q18 0 31 13t13 31v106h168v-81q0 -55 -13.5 -99t-43 -74.5t-75 -47t-108.5 -16.5z" />
    <glyph glyph-name="l" unicode="l" horiz-adv-x="468" 
d="M451 167v-167h-411v669h166v-502h245z" />
    <glyph glyph-name="m" unicode="m" horiz-adv-x="834" 
d="M342 481h153v-481h-153v481zM206 499v-331v-168h-168v669h511q52 0 97.5 -20t79.5 -54t54 -79.5t20 -97.5v-418h-167v168v250q0 35 -24.5 59.5t-59.5 24.5z" />
    <glyph glyph-name="n" unicode="n" horiz-adv-x="660" 
d="M621 167v-167h-209q-35 0 -65 13t-53 36t-36 53t-13 65v83v251h-42v-501h-167v668h209q34 0 64.5 -13t53.5 -36t36 -53.5t13 -64.5v-83v-251h209zM454 668h167v-480h-167v480z" />
    <glyph glyph-name="o" unicode="o" horiz-adv-x="628" 
d="M432 669q34 0 64.5 -13t53.5 -36t36 -53.5t13 -64.5v-335q0 -35 -13 -65t-36 -53t-53.5 -36t-64.5 -13h-236q-35 0 -65.5 13t-53 36t-36 53t-13.5 65v335q0 34 13.5 64.5t36 53.5t53 36t65.5 13h215v-167h-215v-335h236v502z" />
    <glyph glyph-name="p" unicode="p" 
d="M431 668q34 0 64.5 -13t53.5 -36t36 -53.5t13 -64.5v-167q0 -35 -13 -65t-36 -53t-53.5 -36t-64.5 -13h-389v501h389zM431 501h-222v-167h222v167zM42 146h167v-146h-167v146z" />
    <glyph glyph-name="q" unicode="q" horiz-adv-x="633" 
d="M437 669q34 0 64.5 -13t53.5 -36t36 -53.5t13 -64.5v-335q0 -35 -13 -65t-36 -53t-53.5 -36t-64.5 -13h-36v-62h-167v62h-37q-35 0 -65.5 13t-53 36t-36 53t-13.5 65v335q0 34 13.5 64.5t36 53.5t53 36t65.5 13h219v-167h-219v-335h37v61h167v-61h36v502v0z" />
    <glyph glyph-name="r" unicode="r" 
d="M422 668q34 0 64.5 -13t53.5 -36t36 -53.5t13 -64.5v-167q0 -35 -13 -65t-36 -53t-53.5 -36t-64.5 -13h-221v-167h-167v167v33v468h388zM422 501h-221v-167h221v167zM448 150l141 -151l-215 3l-122 148h196z" />
    <glyph glyph-name="s" unicode="s" horiz-adv-x="584" 
d="M389 418q34 0 64.5 -13t53.5 -36t36 -53.5t13 -64.5v-86q0 -34 -13.5 -64t-36.5 -52.5t-53 -35.5t-64 -13h-359v167h359v84h-191q-35 0 -65.5 13t-53 36t-36 53t-13.5 65v83q0 35 13 65.5t36 53.5t53.5 36t65.5 13v-168v-83h25h166zM556 669v-168h-339v168h339z" />
    <glyph glyph-name="t" unicode="t" horiz-adv-x="516" 
d="M17 669h143v-167h-143v167zM501 669v-167h-153l-1 -502h-169l3 669h320z" />
    <glyph glyph-name="u" unicode="u" horiz-adv-x="622" 
d="M592 669v-502q0 -35 -13 -65t-36 -53t-53.5 -36t-64.5 -13h-227q-35 0 -65 13t-53 36t-36 53t-13 65v502h167v-502h227v502h167z" />
    <glyph glyph-name="v" unicode="v" horiz-adv-x="608" 
d="M576 669v-669h-295q-52 0 -97.5 20t-79.5 54t-53.5 79.5t-19.5 97.5l1 418h166v-418q0 -36 23 -53.5t55 -24.5t67.5 -7t61.5 1v502h171z" />
    <glyph glyph-name="w" unicode="w" horiz-adv-x="820" 
d="M487 188h-153v481h153v-481zM540 167q35 0 59 24.5t24 59.5v250v168h168v-418q0 -52 -20 -97.5t-54 -79.5t-79.5 -54t-97.5 -20h-260q-52 0 -97.5 20t-79.5 54t-54 79.5t-20 97.5v418h167v-168v-250q0 -35 24.5 -59.5t59.5 -24.5h260z" />
    <glyph glyph-name="x" unicode="x" horiz-adv-x="621" 
d="M348 344h-21v168h49q18 0 31 13t13 31v106h168v-81q0 -55 -13.5 -99t-43 -74.5t-75 -47t-108.5 -16.5zM203 662v-106q0 -18 13 -31t31 -13h49v-168h-21q-63 0 -108.5 16.5t-75 47t-43 74.5t-13.5 99v81h168zM275 318h21v-168h-49q-18 0 -31 -13t-13 -31v-106h-168v81
q0 55 13.5 99t43 74.5t75 47t108.5 16.5zM420 0v106q0 18 -13 31t-31 13h-49v168h21q63 0 108.5 -16.5t75 -47t43 -74.5t13.5 -99v-81h-168z" />
    <glyph glyph-name="y" unicode="y" horiz-adv-x="650" 
d="M443 668h167v-418h-404q-35 0 -65 13.5t-53 36t-36 53t-13 65.5v250h167v-250h237v250zM359 167q29 0 51 17.5t30 44.5h169q-4 -48 -25.5 -90t-55.5 -73t-77.5 -48.5t-91.5 -17.5h-309v167h309z" />
    <glyph glyph-name="z" unicode="z" horiz-adv-x="614" 
d="M34 501v168h545v-168h-545zM555 480l-307 -313h331v-167h-545v167l301 313h220z" />
  </font>
</defs>
</svg>
