<?xml version="1.0" standalone="no"?>
<!DOCTYPE svg PUBLIC "-//W3C//DTD SVG 1.1//EN" "http://www.w3.org/Graphics/SVG/1.1/DTD/svg11.dtd" >
<svg xmlns="http://www.w3.org/2000/svg" xmlns:xlink="http://www.w3.org/1999/xlink" version="1.1">
<metadata>
Created by FontForge 20170731 at Thu Dec 30 05:31:36 2021
 By Aleksey,,,
(c) 2003 Process Type Foundry. Designed by Eric Olson.
</metadata>
<defs>
<font id="Locator-Bold" horiz-adv-x="1554" >
  <font-face 
    font-family="Locator"
    font-weight="700"
    font-stretch="normal"
    units-per-em="2048"
    panose-1="2 0 5 3 5 0 0 2 0 4"
    ascent="1638"
    descent="-410"
    x-height="997"
    cap-height="1364"
    bbox="-102 -582 2497 1851"
    underline-thickness="40"
    underline-position="-312"
    unicode-range="U+0020-FB02"
  />
<missing-glyph horiz-adv-x="460" 
 />
    <glyph glyph-name=".notdef" horiz-adv-x="460" 
 />
    <glyph glyph-name=".null" horiz-adv-x="0" 
 />
    <glyph glyph-name="nonmarkingreturn" horiz-adv-x="682" 
 />
    <glyph glyph-name="space" unicode=" " horiz-adv-x="460" 
 />
    <glyph glyph-name="exclam" unicode="!" horiz-adv-x="690" 
d="M498 1036l-82 -575h-140l-83 575v328h305v-328zM506 0h-322v319h322v-319z" />
    <glyph glyph-name="quotedbl" unicode="&#x22;" horiz-adv-x="958" 
d="M795 756h-209v608h209v-608zM373 756h-209v608h209v-608z" />
    <glyph glyph-name="numbersign" unicode="#" horiz-adv-x="1499" 
d="M1427 985l-41 -176h-260l-57 -252h260l-41 -178h-260l-88 -379h-192l88 379h-301l-89 -379h-192l88 379h-260l41 178h260l57 252h-260l41 176h260l88 379h193l-88 -379h301l88 379h192l-88 -379h260zM934 809h-301l-58 -252h302z" />
    <glyph glyph-name="dollar" unicode="$" horiz-adv-x="1296" 
d="M1198 391q0 -160 -123.5 -270.5t-345.5 -128.5v-195h-199v197q-193 20 -417 108l57 234q278 -92 477 -92q131 0 190.5 32.5t59.5 106.5q0 57 -47 86.5t-221 94.5q-20 7 -31 11q-119 45 -195.5 84.5t-132.5 89.5t-80 110t-24 140q0 332 420 369v199h198v-197
q215 -10 377 -65l-41 -246q-194 53 -418 53q-138 0 -185.5 -22t-47.5 -82t57.5 -95t274.5 -118q114 -45 183 -81t120.5 -83t72.5 -104t21 -136z" />
    <glyph glyph-name="ampersand" unicode="&#x26;" horiz-adv-x="1478" 
d="M1407 0h-342l-92 106q-172 -129 -381 -129q-215 0 -352.5 123t-137.5 306q0 129 71 220t210 158q-69 100 -99 163t-30 136q0 142 94 221.5t279 79.5q161 0 257.5 -80.5t96.5 -199.5q0 -103 -63.5 -197.5t-192.5 -165.5q70 -74 254 -274q81 134 119 319l217 -55
q-23 -120 -69.5 -239t-102.5 -203q141 -156 264 -289zM813 287q-277 317 -293 336q-123 -74 -123 -213q0 -85 53.5 -137t151.5 -52q113 0 211 66zM752 1079q0 50 -31 80.5t-90 30.5q-60 0 -90.5 -29.5t-30.5 -83.5q0 -47 31 -101t77 -97q69 38 101.5 93t32.5 107z" />
    <glyph glyph-name="quotesingle" unicode="'" horiz-adv-x="536" 
d="M373 754h-209v610h209v-610z" />
    <glyph glyph-name="parenleft" unicode="(" horiz-adv-x="747" 
d="M666 -217l-183 -98q-319 395 -319 938q0 535 307 938l195 -99q-113 -227 -159 -416.5t-46 -422.5t46.5 -423t158.5 -417z" />
    <glyph glyph-name="parenright" unicode=")" horiz-adv-x="747" 
d="M584 623q0 -541 -320 -938l-182 98q112 227 158.5 417t46.5 423t-46 422.5t-159 416.5l194 99q308 -405 308 -938z" />
    <glyph glyph-name="asterisk" unicode="*" horiz-adv-x="997" 
d="M905 836l-102 -174l-230 161l27 -280h-203l27 280l-231 -161l-101 174l256 118l-256 117l101 176l231 -164l-27 281h203l-27 -281l230 164l102 -176l-256 -117z" />
    <glyph glyph-name="plus" unicode="+" horiz-adv-x="1200" 
d="M1087 383h-378v-383h-215v383h-381v209h381v385h215v-385h378v-209z" />
    <glyph glyph-name="comma" unicode="," horiz-adv-x="608" 
d="M455 0l-168 -342h-135l137 342h-156v319h322v-319z" />
    <glyph glyph-name="hyphen" unicode="-" horiz-adv-x="790" 
d="M678 457h-565v239h565v-239z" />
    <glyph glyph-name="period" unicode="." horiz-adv-x="626" 
d="M473 0h-319v319h319v-319z" />
    <glyph glyph-name="slash" unicode="/" horiz-adv-x="1048" 
d="M946 1384l-592 -1624h-252l592 1624h252z" />
    <glyph glyph-name="zero" unicode="0" horiz-adv-x="1341" 
d="M1233 672q0 -113 -22.5 -216t-68.5 -190.5t-112 -151.5t-157.5 -100.5t-200.5 -36.5q-135 0 -243.5 55.5t-177.5 151.5t-105.5 221t-36.5 267t36.5 266.5t105.5 220t177.5 150.5t243.5 55q109 0 200.5 -36t157.5 -99.5t112 -150.5t68.5 -190t22.5 -216zM940 672
q0 68 -8 129t-27.5 118t-49.5 98t-77 66t-106 25q-74 0 -128.5 -37t-84.5 -100.5t-44 -138t-14 -160.5t14 -161t44 -139t84.5 -101.5t128.5 -37.5q59 0 106 25t77 66.5t49.5 99.5t27.5 119t8 129z" />
    <glyph glyph-name="one" unicode="1" horiz-adv-x="946" 
d="M731 0h-293l-2 1094l-344 -62l-41 234l387 77h293v-1343z" />
    <glyph glyph-name="two" unicode="2" horiz-adv-x="1304" 
d="M1161 0h-1028v78q0 67 8.5 120t21.5 95t42.5 81.5t58 69t82.5 67.5t100.5 67.5t127.5 79.5q39 23 59 36q131 81 179 130.5t48 117.5q0 85 -68 125.5t-219 40.5q-157 0 -376 -51l-50 237q109 34 234.5 52t226.5 18q264 0 405.5 -110t141.5 -300q0 -70 -20.5 -128.5
t-66 -112t-102.5 -99t-145 -102.5q-37 -24 -97.5 -62t-93 -59.5t-70.5 -48t-57 -47.5t-24 -39h682v-256z" />
    <glyph glyph-name="three" unicode="3" horiz-adv-x="1191" 
d="M1090 387q0 -83 -42.5 -157.5t-119.5 -130.5t-192.5 -89t-252.5 -33q-202 0 -391 70l49 227q161 -49 340 -49q147 0 228.5 46t81.5 132q0 166 -271 166h-237v236h223q114 0 171.5 43.5t57.5 122.5q0 72 -73 112.5t-207 40.5q-145 0 -295 -45l-51 221q175 64 374 64
q157 0 277.5 -38.5t193 -121t72.5 -198.5q0 -88 -46.5 -170t-137.5 -134q116 -37 182 -123.5t66 -191.5z" />
    <glyph glyph-name="four" unicode="4" horiz-adv-x="1331" 
d="M1239 291h-195v-291h-282v291h-690v258l655 794h317v-811h195v-241zM762 532v492l-410 -492h410z" />
    <glyph glyph-name="five" unicode="5" horiz-adv-x="1296" 
d="M1184 430q0 -92 -36.5 -172.5t-106 -143.5t-181 -100t-252.5 -37q-249 0 -485 99l67 229q228 -76 418 -76q135 0 208 54.5t73 138.5q0 85 -62.5 133.5t-179.5 48.5q-132 0 -223 -47l-238 129l68 657h844v-256h-592l-25 -274q106 39 238 39q218 0 341.5 -118t123.5 -304z
" />
    <glyph glyph-name="six" unicode="6" horiz-adv-x="1273" 
d="M1161 422q0 -189 -141.5 -317t-362.5 -128q-269 0 -412 162.5t-143 440.5q0 231 84 408.5t242 276.5t367 99q181 0 311 -43l-43 -240q-115 31 -227 31q-108 0 -186 -27.5t-126.5 -82t-75 -123.5t-38.5 -164q115 121 319 121q191 0 311.5 -116.5t120.5 -297.5zM866 412
q0 86 -62 136t-163 50q-104 0 -167.5 -54.5t-63.5 -135.5q0 -87 66 -135t159 -48q107 0 169 55t62 132z" />
    <glyph glyph-name="seven" unicode="7" horiz-adv-x="1107" 
d="M1057 1087l-535 -1087h-297l533 1087h-686v256h985v-256z" />
    <glyph glyph-name="eight" unicode="8" horiz-adv-x="1251" 
d="M1159 399q0 -180 -145 -301t-387 -121q-243 0 -389 121t-146 301q0 104 58.5 191t166.5 141q-71 51 -111 122t-40 153q0 166 127 262t334 96t332.5 -95.5t125.5 -262.5q0 -82 -40 -153t-111 -122q108 -54 166.5 -141t58.5 -191zM868 399q0 72 -62.5 128.5t-178.5 56.5
t-180 -56.5t-64 -128.5q0 -80 68 -131t176 -51t174.5 51t66.5 131zM813 971q0 69 -48 115.5t-138 46.5q-91 0 -140 -46.5t-49 -115.5q0 -78 54 -126t133 -48h2q79 0 132.5 48t53.5 126z" />
    <glyph glyph-name="nine" unicode="9" horiz-adv-x="1271" 
d="M1159 762q0 -231 -84 -409t-241.5 -277t-366.5 -99q-179 0 -309 43l41 238q115 -31 227 -31q108 0 186 27.5t126.5 82t75 124t38.5 164.5q-115 -121 -320 -121q-191 0 -310.5 116.5t-119.5 297.5q0 189 141.5 317.5t362.5 128.5q269 0 411 -161.5t142 -440.5zM852 932
q0 87 -66 135.5t-159 48.5q-107 0 -169.5 -55.5t-62.5 -132.5q0 -86 63 -135.5t165 -49.5q104 0 166.5 54t62.5 135z" />
    <glyph glyph-name="colon" unicode=":" horiz-adv-x="626" 
d="M473 657h-319v320h319v-320zM473 0h-319v319h319v-319z" />
    <glyph glyph-name="semicolon" unicode=";" horiz-adv-x="618" 
d="M465 0l-168 -342h-135l137 342h-156v319h322v-319zM465 657h-322v320h322v-320z" />
    <glyph glyph-name="less" unicode="&#x3c;" horiz-adv-x="1148" 
d="M1047 -23l-996 441v151l996 441v-215l-703 -301l703 -301v-216z" />
    <glyph glyph-name="equal" unicode="=" horiz-adv-x="1161" 
d="M1059 600h-957v219h957v-219zM1059 133h-957v219h957v-219z" />
    <glyph glyph-name="greater" unicode="&#x3e;" horiz-adv-x="1148" 
d="M1098 418l-996 -441v216l703 301l-703 301v215l996 -441v-151z" />
    <glyph glyph-name="question" unicode="?" horiz-adv-x="1189" 
d="M1087 983q0 -143 -116 -284t-348 -273l-125 182q23 18 61.5 48t58 45.5t49 40.5t44 41.5t33.5 40.5t27.5 45t15 47.5t6.5 54.5q0 82 -66 119.5t-205 37.5q-188 0 -381 -55l-49 234q105 34 236 55.5t229 21.5q256 0 393 -104t137 -297zM741 0h-319v319h319v-319z" />
    <glyph glyph-name="at" unicode="@" horiz-adv-x="1574" 
d="M1513 102q-125 -59 -284.5 -92t-321.5 -33q-160 0 -302 52.5t-246.5 144.5t-165 224t-60.5 284q0 204 82.5 364.5t230 249t334.5 88.5q200 0 319.5 -105t119.5 -278v-647h-185v86q-76 -98 -196 -98q-88 0 -155 50t-99.5 127t-32.5 167q0 86 32.5 163.5t99.5 129t155 51.5
q127 0 211 -98v55q0 110 -67.5 173t-201.5 63q-224 0 -348.5 -147t-124.5 -394q0 -115 41.5 -215t117.5 -173.5t189.5 -116t251.5 -42.5q290 0 563 103zM1034 686q0 88 -40 141.5t-105 53.5q-68 0 -106 -56.5t-38 -138.5t38 -137t106 -55q66 0 105.5 52t39.5 140z" />
    <glyph glyph-name="A" unicode="A" horiz-adv-x="1357" 
d="M1337 0h-301l-104 281h-504l-106 -281h-302l519 1364h282zM856 512l-176 545l-178 -545h354z" />
    <glyph glyph-name="B" unicode="B" horiz-adv-x="1398" 
d="M1327 393q0 -100 -48 -189t-141 -146.5t-210 -57.5h-744v1364h678q193 0 305.5 -96.5t112.5 -257.5q0 -89 -51 -170.5t-162 -122.5q129 -39 194.5 -130t65.5 -194zM1020 410q0 76 -47 120.5t-139 44.5h-351v-331h351q92 0 139 45t47 121zM973 969q0 153 -187 153h-303
v-317h303q93 0 140 44t47 120z" />
    <glyph glyph-name="C" unicode="C" horiz-adv-x="1351" 
d="M1239 1325l-68 -254q-143 41 -286 41q-243 0 -369.5 -118t-126.5 -312t126.5 -313t369.5 -119q142 0 286 41l62 -250q-180 -64 -391 -64q-165 0 -307.5 55.5t-241.5 151t-155 224.5t-56 274t55.5 273.5t154 223.5t241.5 150t309 55q231 0 397 -59z" />
    <glyph glyph-name="D" unicode="D" horiz-adv-x="1439" 
d="M1378 682q0 -198 -107.5 -353t-307 -242t-459.5 -87h-320v1364h320q260 0 459.5 -87t307 -242t107.5 -353zM1059 682q0 85 -26 154t-72 116t-109.5 79t-136 46.5t-154.5 14.5h-69v-820h69q82 0 154.5 14.5t136 46.5t109.5 79t72 116t26 154z" />
    <glyph glyph-name="E" unicode="E" horiz-adv-x="1308" 
d="M1186 0h-1002v1364h1002v-264h-694v-264h655v-265h-655v-307h694v-264z" />
    <glyph glyph-name="F" unicode="F" horiz-adv-x="1306" 
d="M1235 1100h-743v-264h669v-265h-669v-571h-308v1364h1051v-264z" />
    <glyph glyph-name="G" unicode="G" horiz-adv-x="1437" 
d="M1315 41q-77 -25 -220 -44.5t-241 -19.5q-141 0 -264.5 35.5t-215.5 100t-158.5 152t-100 193.5t-33.5 222q0 205 100.5 366.5t275 249.5t392.5 88q219 0 395 -43l-41 -258q-167 29 -315 29q-249 0 -374.5 -111t-125.5 -321q0 -191 116 -310.5t322 -119.5q118 0 201 14
v438h287v-661z" />
    <glyph glyph-name="H" unicode="H" horiz-adv-x="1574" 
d="M1391 0h-308v551h-591v-551h-308v1364h308v-541h591v541h308v-1364z" />
    <glyph glyph-name="I" unicode="I" horiz-adv-x="696" 
d="M502 0h-307v1364h307v-1364z" />
    <glyph glyph-name="J" unicode="J" horiz-adv-x="915" 
d="M752 434q0 -442 -457 -442h-193v237h185q84 0 120.5 54t36.5 155v674h-315v252h623v-930z" />
    <glyph glyph-name="K" unicode="K" horiz-adv-x="1452" 
d="M1432 0h-406l-534 559v-559h-308v1364h308v-530l507 530h406l-668 -662z" />
    <glyph glyph-name="L" unicode="L" horiz-adv-x="1189" 
d="M1149 0h-965v1364h308v-1100h657v-264z" />
    <glyph glyph-name="M" unicode="M" horiz-adv-x="1798" 
d="M1614 0h-295v821l-338 -569h-166l-336 571v-823h-295v1364h295l420 -713l420 713h295v-1364z" />
    <glyph glyph-name="N" unicode="N" horiz-adv-x="1630" 
d="M1446 0h-299l-660 901v-901h-303v1364h299l660 -903v903h303v-1364z" />
    <glyph glyph-name="O" unicode="O" 
d="M1473 680q0 -192 -92.5 -353.5t-253 -255.5t-351.5 -94q-143 0 -272 55.5t-221.5 149.5t-146.5 224t-54 274q0 192 91.5 353.5t251.5 256t351 94.5q143 0 272.5 -55.5t222.5 -150t147.5 -225t54.5 -273.5zM1165 680q0 191 -103.5 311.5t-285.5 120.5q-181 0 -284 -120.5
t-103 -311.5t102.5 -310.5t284.5 -119.5t285.5 119.5t103.5 310.5z" />
    <glyph glyph-name="P" unicode="P" horiz-adv-x="1402" 
d="M1362 918q0 -122 -57.5 -225t-164.5 -165.5t-239 -62.5h-412v-465h-305v1364h717q133 0 239 -60.5t164 -162t58 -223.5zM1047 918q0 85 -58 142.5t-139 57.5h-358l-3 -405h361q80 0 138.5 60t58.5 145z" />
    <glyph glyph-name="Q" unicode="Q" 
d="M1473 682q0 -252 -155 -444.5t-394 -243.5v-381h-295v381q-239 51 -393 243.5t-154 444.5q0 192 91.5 353t251.5 255t351 94q143 0 272.5 -55.5t222.5 -149.5t147.5 -224t54.5 -273zM1165 682q0 191 -103.5 310.5t-285.5 119.5t-284.5 -119.5t-102.5 -310.5t103 -311.5
t284 -120.5q182 0 285.5 120.5t103.5 311.5z" />
    <glyph glyph-name="R" unicode="R" horiz-adv-x="1556" 
d="M1516 0h-381l-357 489h-286v-489h-308v1364h742q192 0 320 -128t128 -310q0 -128 -67 -232.5t-185 -158.5zM1059 926q0 84 -56.5 137t-138.5 53h-372v-387h372q81 0 138 56t57 141z" />
    <glyph glyph-name="S" unicode="S" horiz-adv-x="1361" 
d="M1264 387q0 -125 -75 -219t-206 -142.5t-299 -48.5q-279 0 -571 115l63 236q281 -90 504 -90q276 0 276 141q0 51 -44 78t-195 83l-88 33q-74 28 -123 48t-102 46t-86 49.5t-64.5 54.5t-48.5 65t-27 76.5t-10 93.5q0 190 137.5 284t425.5 94q116 0 254 -19t242 -50
l-47 -250q-90 26 -213 40.5t-232 14.5q-145 0 -202.5 -23t-57.5 -83q0 -55 56 -88.5t236 -102.5q45 -17 69 -26q196 -77 254 -108q109 -60 146 -143q28 -63 28 -159z" />
    <glyph glyph-name="T" unicode="T" horiz-adv-x="1243" 
d="M1223 1096h-447v-1096h-307v1096h-449v268h1203v-268z" />
    <glyph glyph-name="U" unicode="U" horiz-adv-x="1556" 
d="M1393 567q0 -118 -44.5 -225t-123.5 -188t-195 -129t-252 -48q-180 0 -322 82t-217 216t-75 292v797h307v-797q0 -145 85.5 -230t221.5 -85t221.5 85t85.5 230v797h308v-797z" />
    <glyph glyph-name="V" unicode="V" horiz-adv-x="1304" 
d="M1288 1364l-477 -1364h-315l-480 1364h308l329 -997l328 997h307z" />
    <glyph glyph-name="W" unicode="W" horiz-adv-x="1767" 
d="M1737 1364l-332 -1364h-244l-278 852l-277 -852h-244l-331 1364h303l186 -797l258 797h211l258 -797l187 797h303z" />
    <glyph glyph-name="X" unicode="X" horiz-adv-x="1294" 
d="M1284 0h-338l-299 453l-301 -453h-336l467 688l-459 676h336l293 -438l291 438h338l-461 -676z" />
    <glyph glyph-name="Y" unicode="Y" horiz-adv-x="1234" 
d="M1235 1364l-463 -827v-537h-307v537l-465 827h307l311 -557l310 557h307z" />
    <glyph glyph-name="Z" unicode="Z" horiz-adv-x="1323" 
d="M1241 0h-1139v276l746 824h-727v264h1093v-272l-741 -828h768v-264z" />
    <glyph glyph-name="bracketleft" unicode="[" horiz-adv-x="739" 
d="M719 -258h-535v1876h535v-234h-236v-1407h236v-235z" />
    <glyph glyph-name="backslash" unicode="\" horiz-adv-x="1048" 
d="M946 -240h-252l-592 1624h252z" />
    <glyph glyph-name="bracketright" unicode="]" horiz-adv-x="739" 
d="M555 -258h-535v235h236v1407h-236v234h535v-1876z" />
    <glyph glyph-name="asciicircum" unicode="^" horiz-adv-x="980" 
d="M930 670h-228l-210 473l-213 -473h-228l346 694h189z" />
    <glyph glyph-name="underscore" unicode="_" horiz-adv-x="954" 
d="M954 -117h-954v94h954v-94z" />
    <glyph glyph-name="grave" unicode="`" horiz-adv-x="700" 
d="M578 1128h-189l-297 273h297z" />
    <glyph glyph-name="a" unicode="a" horiz-adv-x="1077" 
d="M975 0h-279v106q-101 -122 -288 -122q-147 0 -241.5 85.5t-94.5 211.5q0 144 84 219t239 75h287v74q0 78 -47.5 108.5t-175.5 30.5q-137 0 -307 -20l-23 213q194 35 358 35q232 0 360 -92.5t128 -284.5v-639zM682 367v26h-180q-137 0 -137 -106q0 -103 137 -103
q82 0 131 51t49 132z" />
    <glyph glyph-name="b" unicode="b" horiz-adv-x="1228" 
d="M1163 500q0 -96 -29.5 -187.5t-82.5 -165t-136.5 -118.5t-183.5 -45q-83 0 -159.5 40.5t-133.5 108.5v-133h-295v1364h295v-494q117 146 293 146q100 0 183.5 -43.5t137 -116t82.5 -164.5t29 -192zM868 500q0 125 -55.5 206.5t-157.5 81.5q-99 0 -158 -78.5t-59 -209.5
q0 -130 60.5 -210.5t156.5 -80.5q101 0 157 83t56 208z" />
    <glyph glyph-name="c" unicode="c" horiz-adv-x="995" 
d="M893 35q-125 -51 -264 -51q-249 0 -406 147.5t-157 368.5t157 368.5t406 147.5q141 0 264 -51l-47 -209q-101 28 -193 28q-146 0 -220.5 -77t-74.5 -207t75 -208.5t220 -78.5q81 0 193 31z" />
    <glyph glyph-name="d" unicode="d" horiz-adv-x="1228" 
d="M1085 0h-294v133q-57 -68 -133.5 -108.5t-159.5 -40.5q-100 0 -183.5 45t-136.5 118.5t-82.5 165t-29.5 187.5q0 100 29 192t82.5 164.5t137 116t183.5 43.5q176 0 293 -146v494h294v-1364zM791 500q0 131 -59 209.5t-159 78.5q-102 0 -157.5 -81.5t-55.5 -206.5t56 -208
t157 -83q96 0 157 80.5t61 210.5z" />
    <glyph glyph-name="e" unicode="e" horiz-adv-x="1110" 
d="M1032 414h-682q0 -93 74.5 -149t220.5 -56q141 0 281 39l51 -209q-149 -55 -336 -55q-274 0 -424.5 139.5t-150.5 376.5q0 102 34.5 195.5t96.5 164.5t156 113.5t206 42.5q217 0 345 -142.5t128 -381.5v-78zM756 596q-9 93 -59.5 146t-137.5 53q-82 0 -138 -51t-69 -148
h404z" />
    <glyph glyph-name="f" unicode="f" horiz-adv-x="763" 
d="M754 1384l-33 -206q-54 10 -115 10q-121 0 -121 -141v-70h181v-193h-181v-784h-295v784h-129v193h129v59q0 182 86.5 280.5t258.5 98.5q107 0 219 -31z" />
    <glyph glyph-name="g" unicode="g" horiz-adv-x="1216" 
d="M1083 129q0 -229 -152.5 -353t-416.5 -124q-66 0 -99 1t-103.5 10.5t-135.5 29.5l35 205q137 -37 268 -37q163 0 237.5 57.5t74.5 167.5v64q-53 -64 -130.5 -98t-164.5 -34q-100 0 -183 42t-136 112.5t-82 159t-29 184.5q0 135 49 247t148.5 182.5t232.5 70.5
q178 0 295 -146v127h292v-868zM791 500q0 131 -59 209.5t-159 78.5q-103 0 -158 -74.5t-55 -197.5t55 -197.5t158 -74.5q99 0 158.5 65t59.5 191z" />
    <glyph glyph-name="h" unicode="h" horiz-adv-x="1222" 
d="M1090 0h-293v575q0 84 -39 132.5t-119 48.5q-73 0 -137 -55.5t-64 -129.5v-571h-295v1364h285v-516q47 69 140.5 118.5t197.5 49.5q163 0 243.5 -104.5t80.5 -288.5v-623z" />
    <glyph glyph-name="i" unicode="i" horiz-adv-x="581" 
d="M438 0h-295v997h295v-997zM438 1163h-295v252h295v-252z" />
    <glyph glyph-name="j" unicode="j" horiz-adv-x="583" 
d="M451 -8q0 -171 -95 -256.5t-250 -85.5q-85 0 -147 8v229q37 -6 90 -6q64 0 85.5 31t21.5 117v968h295v-1005zM451 1163h-295v252h295v-252z" />
    <glyph glyph-name="k" unicode="k" horiz-adv-x="1163" 
d="M1143 0h-340l-367 391v-391h-293v1364h293v-741l350 374h342l-460 -491z" />
    <glyph glyph-name="l" unicode="l" horiz-adv-x="706" 
d="M625 -8q-77 -10 -148 -10q-155 0 -249.5 85.5t-94.5 256.5v1040h293v-1002q0 -85 22 -116t87 -31t90 4v-227z" />
    <glyph glyph-name="m" unicode="m" horiz-adv-x="1849" 
d="M1716 0h-295v575q0 84 -38.5 132.5t-118.5 48.5q-72 0 -129.5 -55t-57.5 -130v-571h-295v575q0 84 -38.5 132.5t-118.5 48.5q-72 0 -129.5 -55t-57.5 -130v-571h-295v997h287v-149q48 70 135 119t189 49q201 0 280 -168q50 66 150.5 117t206.5 51q163 0 244 -104.5
t81 -288.5v-623z" />
    <glyph glyph-name="n" unicode="n" horiz-adv-x="1222" 
d="M1090 0h-295v575q0 84 -39 132.5t-119 48.5q-73 0 -137 -55.5t-64 -129.5v-571h-293v997h285v-149q47 69 140.5 118.5t197.5 49.5q163 0 243.5 -104.5t80.5 -288.5v-623z" />
    <glyph glyph-name="o" unicode="o" horiz-adv-x="1171" 
d="M1106 500q0 -136 -65 -253.5t-185.5 -190t-269.5 -72.5t-269.5 72.5t-185.5 190t-65 253.5t65 253.5t185.5 190t269.5 72.5t269.5 -72.5t185.5 -190t65 -253.5zM811 500q0 132 -60 211.5t-165 79.5t-165.5 -79.5t-60.5 -211.5t60.5 -211.5t165.5 -79.5t165 79.5t60 211.5
z" />
    <glyph glyph-name="p" unicode="p" horiz-adv-x="1228" 
d="M1163 500q0 -100 -29 -192t-82 -164.5t-136 -116t-183 -43.5q-178 0 -295 145v-461h-295v1329h295v-131q57 67 134.5 108.5t160.5 41.5q100 0 183 -45t136 -119t82 -165t29 -187zM868 500q0 125 -55.5 206.5t-157.5 81.5q-96 0 -156.5 -79t-60.5 -209q0 -131 59 -211
t158 -80q101 0 157 83t56 208z" />
    <glyph glyph-name="q" unicode="q" horiz-adv-x="1228" 
d="M1085 -332h-294v461q-117 -145 -295 -145q-100 0 -183 43.5t-136 116t-82 164.5t-29 192q0 96 29 187t82 165t136 119t183 45q83 0 160.5 -41.5t134.5 -108.5v131h294v-1329zM791 500q0 129 -61 208.5t-157 79.5q-102 0 -157.5 -81.5t-55.5 -206.5t56 -208t157 -83
q99 0 158.5 80t59.5 211z" />
    <glyph glyph-name="r" unicode="r" horiz-adv-x="827" 
d="M776 1010l-2 -260q-54 4 -76 4q-121 0 -190.5 -87.5t-69.5 -222.5v-444h-295v997h287v-170q33 74 106 131.5t175 57.5q25 0 65 -6z" />
    <glyph glyph-name="s" unicode="s" horiz-adv-x="1009" 
d="M938 291q0 -139 -118.5 -223t-311.5 -84q-200 0 -426 90l55 202q213 -71 369 -71q85 0 116 18.5t31 52.5q0 33 -28 52t-123 57q-65 27 -96.5 40.5t-78.5 35.5t-68 35t-50 34t-41 38.5t-25.5 42t-17.5 51.5t-4 61q0 293 420 293q80 0 185 -14.5t179 -40.5l-39 -216
q-67 19 -159.5 34.5t-161.5 15.5q-83 0 -113.5 -14t-30.5 -44q0 -10 1.5 -18t7 -15.5t10.5 -12.5t17 -12t22 -12t29.5 -13t35.5 -14t45 -17.5t52 -20.5q68 -27 107.5 -44t80.5 -39t61.5 -42t38 -48t23.5 -60.5t6 -77.5z" />
    <glyph glyph-name="t" unicode="t" horiz-adv-x="741" 
d="M659 -2q-72 -14 -145 -14q-156 0 -250 76.5t-94 234.5v514h-129v188h129v279h293v-279h172v-188h-172v-490q0 -65 31 -88.5t84 -23.5q7 0 55 6z" />
    <glyph glyph-name="u" unicode="u" horiz-adv-x="1224" 
d="M1081 0h-286v150q-47 -69 -139.5 -117.5t-196.5 -48.5q-164 0 -245 104t-81 287v622h295v-575q0 -83 39 -130.5t119 -47.5q74 0 137 54t63 128v571h295v-997z" />
    <glyph glyph-name="v" unicode="v" horiz-adv-x="1052" 
d="M1036 997l-364 -997h-293l-363 997h285l225 -696l226 696h284z" />
    <glyph glyph-name="w" unicode="w" horiz-adv-x="1472" 
d="M1462 997l-274 -997h-285l-166 651l-172 -651h-284l-271 997h271l151 -673l176 673h256l172 -673l152 673h274z" />
    <glyph glyph-name="x" unicode="x" horiz-adv-x="1032" 
d="M1001 0h-301l-184 283l-182 -283h-303l336 508l-328 489h303l174 -278l176 278h303l-329 -489z" />
    <glyph glyph-name="y" unicode="y" horiz-adv-x="1038" 
d="M1024 997l-485 -1331h-285l121 336l-371 995h285l229 -680l221 680h285z" />
    <glyph glyph-name="z" unicode="z" horiz-adv-x="1132" 
d="M1010 0h-887v215l522 567h-479v215h835v-213l-534 -567h543v-217z" />
    <glyph glyph-name="braceleft" unicode="{" horiz-adv-x="722" 
d="M713 -293h-281q-63 0 -109 20.5t-72 56t-38 77t-12 90.5v448q0 89 -25.5 125.5t-89.5 36.5h-33l-2 205h35q64 0 89.5 36.5t25.5 125.5v446q0 49 12 90.5t38 77t72 56t109 20.5h281v-213h-127q-49 0 -67.5 -24t-18.5 -74v-342q0 -129 -75.5 -213t-223.5 -88
q75 -2 133.5 -27t94 -67t53.5 -95t18 -115v-342q0 -50 18.5 -74t67.5 -24h127v-213z" />
    <glyph glyph-name="bar" unicode="|" horiz-adv-x="618" 
d="M414 -410h-209v2048h209v-2048z" />
    <glyph glyph-name="braceright" unicode="}" horiz-adv-x="722" 
d="M672 766l-2 -205h-33q-64 0 -89.5 -36.5t-25.5 -125.5v-448q0 -49 -12 -90.5t-38 -77t-72 -56t-109 -20.5h-281v213h127q49 0 67.5 24t18.5 74v342q0 130 75 215t224 89q-149 4 -224 87.5t-75 213.5v342q0 50 -18.5 74t-67.5 24h-127v213h281q63 0 109 -20.5t72 -56
t38 -77t12 -90.5v-446q0 -89 25.5 -125.5t89.5 -36.5h35z" />
    <glyph glyph-name="asciitilde" unicode="~" horiz-adv-x="929" 
d="M889 670q-17 -51 -41 -97t-58 -90.5t-81.5 -71t-100.5 -26.5q-60 0 -119.5 31.5t-107 62.5t-78.5 31q-74 0 -125 -129l-137 65q17 51 41 97.5t58 91.5t81.5 71.5t100.5 26.5q47 0 95 -20t80.5 -43.5t68.5 -43.5t61 -20q74 0 125 129z" />
    <glyph glyph-name="nbspace" unicode="&#xa0;" horiz-adv-x="552" 
 />
    <glyph glyph-name="exclamdown" unicode="&#xa1;" horiz-adv-x="690" 
d="M498 0h-305v328l81 575h140l84 -575v-328zM506 1044h-322v320h322v-320z" />
    <glyph glyph-name="cent" unicode="&#xa2;" horiz-adv-x="995" 
d="M893 35q-116 -48 -252 -51v-127h-49v129q-234 12 -380 157t-146 357t146 357t380 157v129h49v-127q135 -3 252 -51l-47 -209q-101 28 -193 28h-12v-569q2 0 6 -1t6 -1q81 0 193 31zM592 219v561q-115 -17 -173.5 -91.5t-58.5 -188.5t58.5 -189t173.5 -92z" />
    <glyph glyph-name="sterling" unicode="&#xa3;" horiz-adv-x="1470" 
d="M1327 1317l-43 -252q-89 25 -213.5 40t-234.5 15q-147 0 -204 -22.5t-57 -83.5q0 -40 9 -86t19 -80.5t36 -114.5h408v-153h-385v-9q0 -197 -84 -329h682v-242h-1127v242h135q82 171 82 333v5h-184v153h164q-62 169 -62 273q0 192 137 285t426 93q126 0 262.5 -17
t233.5 -50z" />
    <glyph glyph-name="currency" unicode="&#xa4;" horiz-adv-x="1470" 
d="M1358 1325l-43 -256q-165 43 -311 43q-178 0 -294 -65.5t-165 -180.5h344v-125h-375q-4 -40 -4 -59q0 -26 4 -66h375v-127h-340q52 -112 166 -175.5t289 -63.5q140 0 311 43l39 -252q-195 -64 -393 -64q-272 0 -469.5 142.5t-262.5 369.5h-188v127h164q-2 20 -2 66
q0 39 2 59h-164v125h186q63 230 261 374t473 144q122 0 203.5 -12t193.5 -47z" />
    <glyph glyph-name="yen" unicode="&#xa5;" horiz-adv-x="1236" 
d="M1237 1364l-322 -571h181v-166h-273l-51 -90v-48h324v-165h-324v-324h-307v324h-326v165h326v48l-49 90h-277v166h183l-322 571h307l311 -559l312 559h307z" />
    <glyph glyph-name="brokenbar" unicode="&#xa6;" horiz-adv-x="618" 
d="M414 801h-209v837h209v-837zM414 -410h-209v838h209v-838z" />
    <glyph glyph-name="section" unicode="&#xa7;" horiz-adv-x="1193" 
d="M1092 0q0 -161 -138.5 -255.5t-359.5 -94.5q-248 0 -492 98l54 205q245 -80 434 -80q239 0 239 121q0 45 -40 69t-178 75q-13 5 -21 8l-20 7.5t-23 8.5q-105 39 -174 74.5t-121.5 82t-76 104.5t-23.5 134q0 87 38.5 149t100.5 97q-71 46 -105 105.5t-34 148.5
q0 164 117.5 245.5t365.5 81.5q107 0 224 -15t200 -44l-37 -217q-179 49 -383 49q-124 0 -174.5 -20t-50.5 -72q0 -47 46.5 -75t196.5 -86q14 -5 22 -8t20.5 -8t23.5 -9q55 -21 87.5 -34.5t74 -32t65 -33t50.5 -35t41 -40.5t27.5 -45.5t18.5 -55.5t5 -66q0 -79 -39 -151.5
t-115 -123.5q81 -43 117.5 -101.5t36.5 -160.5zM829 520q0 45 -40 69t-178 75q-13 5 -21 8l-20 7.5t-23 8.5l-49 19q-37 -20 -59.5 -58.5t-22.5 -79.5q0 -64 55.5 -102t230.5 -105q57 23 92 67t35 91z" />
    <glyph glyph-name="dieresis" unicode="&#xa8;" horiz-adv-x="847" 
d="M725 1147h-223v213h223v-213zM346 1147h-223v213h223v-213z" />
    <glyph glyph-name="copyright" unicode="&#xa9;" horiz-adv-x="1495" 
d="M1430 682q0 -142 -51.5 -271.5t-140.5 -225t-216.5 -152t-273.5 -56.5t-273.5 56.5t-216.5 152t-140.5 225t-51.5 271.5t51.5 271t140.5 224t216.5 151t273.5 56t273.5 -56t216.5 -151t140.5 -224t51.5 -271zM1307 682q0 91 -25 177.5t-73.5 160.5t-115.5 130t-156 88
t-189 32q-165 0 -295 -84.5t-197.5 -217.5t-67.5 -286q0 -114 40 -220t111 -188.5t178 -132t231 -49.5t231 49.5t177.5 132t110.5 188.5t40 220zM995 1006l-22 -129q-93 22 -156 22q-123 0 -186.5 -59.5t-63.5 -157.5t63.5 -158.5t186.5 -60.5q60 0 156 22l20 -127
q-105 -32 -198 -32q-166 0 -274.5 103t-108.5 253t108 252t275 102q63 0 103.5 -6t96.5 -24z" />
    <glyph glyph-name="ordfeminine" unicode="&#xaa;" horiz-adv-x="808" 
d="M696 705h-184v71q-70 -82 -195 -82q-98 0 -161.5 57.5t-63.5 141.5q0 96 56.5 146.5t160.5 50.5h191v49q0 52 -31 73t-117 21q-88 0 -207 -14l-14 143q116 22 240 22q325 0 325 -251v-428zM500 950v19h-119q-92 0 -92 -72q0 -70 92 -70q55 0 87 34t32 89z" />
    <glyph glyph-name="guillemotleft" unicode="&#xab;" horiz-adv-x="1290" 
d="M653 117l-125 -117l-467 498l467 499l125 -116l-358 -381zM1126 117l-122 -117l-469 498l466 499l125 -116l-358 -381z" />
    <glyph glyph-name="logicalnot" unicode="&#xac;" horiz-adv-x="1142" 
d="M958 0h-217v383h-618v209h835v-592z" />
    <glyph glyph-name="registered" unicode="&#xae;" horiz-adv-x="1495" 
d="M1430 682q0 -142 -51.5 -271.5t-140.5 -225t-216.5 -152t-273.5 -56.5t-273.5 56.5t-216.5 152t-140.5 225t-51.5 271.5t51.5 271t140.5 224t216.5 151t273.5 56t273.5 -56t216.5 -151t140.5 -224t51.5 -271zM1305 682q0 91 -24.5 177.5t-73 160.5t-115 130t-155.5 88
t-189 32q-165 0 -295 -84.5t-197.5 -217.5t-67.5 -286q0 -114 40 -220t111 -188.5t178 -132t231 -49.5t230.5 49.5t177 132t110 188.5t39.5 220zM1137 336h-191l-180 248h-145v-248h-156v690h375q97 0 162 -65.5t65 -157.5q0 -65 -34.5 -118t-94.5 -79zM907 803q0 42 -29 70
t-69 28h-188v-196h188q40 0 69 28t29 70z" />
    <glyph glyph-name="macron" unicode="&#xaf;" horiz-adv-x="806" 
d="M684 1219h-561v124h561v-124z" />
    <glyph glyph-name="degree" unicode="&#xb0;" horiz-adv-x="626" 
d="M535 1163q0 -92 -65 -157.5t-157 -65.5t-156.5 65.5t-64.5 157.5t64.5 156.5t156.5 64.5t157 -64.5t65 -156.5zM459 1163q0 60 -43 103t-103 43t-102.5 -43t-42.5 -103t42.5 -102.5t102.5 -42.5t103 42.5t43 102.5z" />
    <glyph glyph-name="plusminus" unicode="&#xb1;" horiz-adv-x="1202" 
d="M1090 0h-977v184h381v199h-381v209h381v385h215v-385h381v-209h-381v-199h381v-184z" />
    <glyph glyph-name="twosuperior" unicode="&#xb2;" horiz-adv-x="1363" 
d="M1364 0h-342v342h-340v340h-342v342h342v-342h340v-340h342v-342zM1364 682h-342v342h342v-342zM682 0h-342v342h342v-342zM1022 1024h-340v340h340v-340zM340 342h-340v340h340v-340zM340 1024h-340v340h340v-340z" />
    <glyph glyph-name="threesuperior" unicode="&#xb3;" horiz-adv-x="1363" 
d="M1364 0h-342v342h-340v340h-342v342h342v-342h340v-340h342v-342zM1364 682h-342v342h342v-342zM682 0h-342v342h342v-342zM1022 1024h-340v340h340v-340zM340 342h-340v340h340v-340zM340 1024h-340v340h340v-340z" />
    <glyph glyph-name="acute" unicode="&#xb4;" horiz-adv-x="700" 
d="M608 1401l-297 -273h-188l188 273h297z" />
    <glyph glyph-name="mu" unicode="&#xb5;" horiz-adv-x="1224" 
d="M1081 0h-286v150q-47 -69 -139.5 -117.5t-196.5 -48.5h-31v-316h-295v1329h295v-575q0 -83 39 -130.5t119 -47.5q74 0 137 54t63 128v571h295v-997z" />
    <glyph glyph-name="paragraph" unicode="&#xb6;" horiz-adv-x="958" 
d="M774 0h-141v1276h-137v-1276h-140v733q-130 0 -222.5 92.5t-92.5 223.5t92.5 223t222.5 92h418v-1364z" />
    <glyph glyph-name="periodcentered" unicode="&#xb7;" horiz-adv-x="626" 
d="M473 455h-319v319h319v-319z" />
    <glyph glyph-name="cedilla" unicode="&#xb8;" horiz-adv-x="778" 
d="M655 -356q0 -99 -91.5 -162.5t-233.5 -63.5q-109 0 -207 33l35 115q74 -19 151 -19q76 0 116 28t40 73q0 82 -127 82q-17 0 -71.5 -2.5t-90.5 -3.5l62 276h155q-12 -48 -27 -95t-16 -50q25 2 58 2q115 0 181 -56t66 -157z" />
    <glyph glyph-name="onesuperior" unicode="&#xb9;" horiz-adv-x="1363" 
d="M1364 0h-342v342h-340v340h-342v342h342v-342h340v-340h342v-342zM1364 682h-342v342h342v-342zM682 0h-342v342h342v-342zM1022 1024h-340v340h340v-340zM340 342h-340v340h340v-340zM340 1024h-340v340h340v-340z" />
    <glyph glyph-name="ordmasculine" unicode="&#xba;" horiz-adv-x="839" 
d="M768 1038q0 -140 -99 -242t-249 -102t-249 102t-99 242t99 243t249 103t249 -103t99 -243zM571 1038q0 89 -40.5 142t-110.5 53t-111 -53.5t-41 -141.5t41 -140t111 -52t110.5 52t40.5 140z" />
    <glyph glyph-name="guillemotright" unicode="&#xbb;" horiz-adv-x="1290" 
d="M1229 498l-467 -498l-125 117l358 383l-358 381l125 116zM756 498l-469 -498l-123 117l358 383l-358 381l125 116z" />
    <glyph glyph-name="onequarter" unicode="&#xbc;" horiz-adv-x="1363" 
d="M1364 0h-342v342h-340v340h-342v342h342v-342h340v-340h342v-342zM1364 682h-342v342h342v-342zM682 0h-342v342h342v-342zM1022 1024h-340v340h340v-340zM340 342h-340v340h340v-340zM340 1024h-340v340h340v-340z" />
    <glyph glyph-name="onehalf" unicode="&#xbd;" horiz-adv-x="1363" 
d="M1364 0h-342v342h-340v340h-342v342h342v-342h340v-340h342v-342zM1364 682h-342v342h342v-342zM682 0h-342v342h342v-342zM1022 1024h-340v340h340v-340zM340 342h-340v340h340v-340zM340 1024h-340v340h340v-340z" />
    <glyph glyph-name="threequarters" unicode="&#xbe;" horiz-adv-x="1363" 
d="M1364 0h-342v342h-340v340h-342v342h342v-342h340v-340h342v-342zM1364 682h-342v342h342v-342zM682 0h-342v342h342v-342zM1022 1024h-340v340h340v-340zM340 342h-340v340h340v-340zM340 1024h-340v340h340v-340z" />
    <glyph glyph-name="questiondown" unicode="&#xbf;" horiz-adv-x="1189" 
d="M1098 55q-105 -35 -236.5 -56.5t-228.5 -21.5q-256 0 -393.5 104.5t-137.5 297.5q0 143 116.5 284t348.5 273l125 -182q-23 -18 -61.5 -48t-58 -45.5t-49 -40.5t-44 -41.5t-33.5 -40.5t-27.5 -45t-15 -47.5t-6.5 -54.5q0 -83 66 -120.5t205 -37.5q184 0 381 56zM768 1044
h-319v320h319v-320z" />
    <glyph glyph-name="Agrave" unicode="&#xc0;" horiz-adv-x="1357" 
d="M1337 0h-301l-104 281h-504l-106 -281h-302l519 1364h282zM856 512l-176 545l-178 -545h354zM766 1473h-188l-297 272h297z" />
    <glyph glyph-name="Aacute" unicode="&#xc1;" horiz-adv-x="1357" 
d="M1337 0h-301l-104 281h-504l-106 -281h-302l519 1364h282zM856 512l-176 545l-178 -545h354zM1073 1745l-297 -272h-188l188 272h297z" />
    <glyph glyph-name="Acircumflex" unicode="&#xc2;" horiz-adv-x="1357" 
d="M1337 0h-301l-104 281h-504l-106 -281h-302l519 1364h282zM1016 1458h-225l-111 133l-113 -133h-225l233 277h201zM856 512l-176 545l-178 -545h354z" />
    <glyph glyph-name="Atilde" unicode="&#xc3;" horiz-adv-x="1357" 
d="M1337 0h-301l-104 281h-504l-106 -281h-302l519 1364h282zM786 1468q-34 0 -70 15t-60 33.5t-51.5 33.5t-47.5 15q-59 0 -98 -99l-94 47q18 53 42 96.5t68 80t96 36.5q34 0 70 -15.5t60.5 -33.5t52 -33.5t47.5 -15.5q60 0 98 98l94 -45q-13 -38 -30.5 -72t-42.5 -67.5
t-60 -53.5t-74 -20zM856 512l-176 545l-178 -545h354z" />
    <glyph glyph-name="Adieresis" unicode="&#xc4;" horiz-adv-x="1357" 
d="M1337 0h-301l-104 281h-504l-106 -281h-302l519 1364h282zM856 512l-176 545l-178 -545h354zM981 1475h-225v213h225v-213zM600 1475h-223v213h223v-213z" />
    <glyph glyph-name="Aring" unicode="&#xc5;" horiz-adv-x="1357" 
d="M1337 0h-301l-104 281h-504l-106 -281h-302l519 1364h282zM899 1632q0 -91 -64 -155t-155 -64q-92 0 -156.5 64t-64.5 155t64 155t155 64q92 0 156.5 -64t64.5 -155zM856 512l-176 545l-178 -545h354zM786 1632h2q0 47 -29 82t-79 35q-51 0 -80 -34.5t-29 -82.5
q0 -47 29 -81.5t78 -34.5q50 0 79 34.5t29 81.5z" />
    <glyph glyph-name="AE" unicode="&#xc6;" horiz-adv-x="1869" 
d="M1747 0h-829l-62 279h-426l-106 -279h-304l519 1364h1208v-264h-791l68 -264h655v-265h-589l77 -307h580v-264zM805 512l-119 545l-182 -545h301z" />
    <glyph glyph-name="Ccedilla" unicode="&#xc7;" horiz-adv-x="1351" 
d="M1239 1325l-68 -254q-143 41 -286 41q-243 0 -369.5 -118t-126.5 -312t126.5 -313t369.5 -119q142 0 286 41l62 -250q-180 -64 -391 -64q-165 0 -307.5 55.5t-241.5 151t-155 224.5t-56 274t55.5 273.5t154 223.5t241.5 150t309 55q231 0 397 -59zM1124 -356
q0 -99 -91.5 -162.5t-233.5 -63.5q-109 0 -207 33l35 115q74 -19 151 -19q76 0 116 28t40 73q0 82 -127 82q-17 0 -71.5 -2.5t-90.5 -3.5l62 276h155q-12 -48 -27 -95t-16 -50q25 2 58 2q115 0 181 -56t66 -157z" />
    <glyph glyph-name="Egrave" unicode="&#xc8;" horiz-adv-x="1308" 
d="M1186 0h-1002v1364h1002v-264h-694v-264h655v-265h-655v-307h694v-264zM817 1473h-188l-297 272h297z" />
    <glyph glyph-name="Eacute" unicode="&#xc9;" horiz-adv-x="1308" 
d="M1186 0h-1002v1364h1002v-264h-694v-264h655v-265h-655v-307h694v-264zM1040 1745l-297 -272h-188l188 272h297z" />
    <glyph glyph-name="Ecircumflex" unicode="&#xca;" horiz-adv-x="1308" 
d="M1186 0h-1002v1364h1002v-264h-694v-264h655v-265h-655v-307h694v-264zM997 1458h-225l-110 133l-113 -133h-225l233 277h201z" />
    <glyph glyph-name="Edieresis" unicode="&#xcb;" horiz-adv-x="1308" 
d="M1186 0h-1002v1364h1002v-264h-694v-264h655v-265h-655v-307h694v-264zM985 1475h-225v213h225v-213zM604 1475h-223v213h223v-213z" />
    <glyph glyph-name="Igrave" unicode="&#xcc;" horiz-adv-x="696" 
d="M502 0h-307v1364h307v-1364zM463 1473h-189l-297 272h297z" />
    <glyph glyph-name="Iacute" unicode="&#xcd;" horiz-adv-x="696" 
d="M502 0h-307v1364h307v-1364zM717 1745l-297 -272h-189l189 272h297z" />
    <glyph glyph-name="Icircumflex" unicode="&#xce;" horiz-adv-x="696" 
d="M502 0h-307v1364h307v-1364zM684 1458h-225l-111 133l-112 -133h-224l234 277h200z" />
    <glyph glyph-name="Idieresis" unicode="&#xcf;" horiz-adv-x="696" 
d="M502 0h-307v1364h307v-1364zM649 1475h-223v213h223v-213zM270 1475h-223v213h223v-213z" />
    <glyph glyph-name="Eth" unicode="&#xd0;" horiz-adv-x="1497" 
d="M1436 682q0 -148 -63.5 -274.5t-177 -216.5t-277 -140.5t-357.5 -50.5h-319v588h-160v188h160v588h319q194 0 357.5 -50.5t277 -140.5t177 -216.5t63.5 -274.5zM1116 682q0 106 -40 186.5t-110 128.5t-158 71.5t-192 23.5h-67v-316h266v-188h-266v-316h67q104 0 192 23.5
t158 71.5t110 128.5t40 186.5z" />
    <glyph glyph-name="Ntilde" unicode="&#xd1;" horiz-adv-x="1630" 
d="M1446 0h-299l-660 901v-901h-303v1364h299l660 -903v903h303v-1364zM942 1468q-34 0 -69 15t-59.5 33.5t-52 33.5t-48.5 15q-56 0 -99 -99l-94 47q29 85 81.5 149t125.5 64q44 0 88 -24.5t80.5 -49t60.5 -24.5q61 0 99 98l94 -45q-17 -52 -41.5 -96.5t-69 -80.5
t-96.5 -36z" />
    <glyph glyph-name="Ograve" unicode="&#xd2;" 
d="M1473 680q0 -192 -92.5 -353.5t-253 -255.5t-351.5 -94q-143 0 -272 55.5t-221.5 149.5t-146.5 224t-54 274q0 192 91.5 353.5t251.5 256t351 94.5q143 0 272.5 -55.5t222.5 -150t147.5 -225t54.5 -273.5zM1165 680q0 191 -103.5 311.5t-285.5 120.5q-181 0 -284 -120.5
t-103 -311.5t102.5 -310.5t284.5 -119.5t285.5 119.5t103.5 310.5zM868 1473h-188l-297 272h297z" />
    <glyph glyph-name="Oacute" unicode="&#xd3;" 
d="M1473 680q0 -192 -92.5 -353.5t-253 -255.5t-351.5 -94q-143 0 -272 55.5t-221.5 149.5t-146.5 224t-54 274q0 192 91.5 353.5t251.5 256t351 94.5q143 0 272.5 -55.5t222.5 -150t147.5 -225t54.5 -273.5zM1165 680q0 191 -103.5 311.5t-285.5 120.5q-181 0 -284 -120.5
t-103 -311.5t102.5 -310.5t284.5 -119.5t285.5 119.5t103.5 310.5zM1174 1745l-297 -272h-189l189 272h297z" />
    <glyph glyph-name="Ocircumflex" unicode="&#xd4;" 
d="M1473 680q0 -192 -92.5 -353.5t-253 -255.5t-351.5 -94q-143 0 -272 55.5t-221.5 149.5t-146.5 224t-54 274q0 192 91.5 353.5t251.5 256t351 94.5q143 0 272.5 -55.5t222.5 -150t147.5 -225t54.5 -273.5zM1165 680q0 191 -103.5 311.5t-285.5 120.5q-181 0 -284 -120.5
t-103 -311.5t102.5 -310.5t284.5 -119.5t285.5 119.5t103.5 310.5zM1114 1458h-225l-111 133l-112 -133h-226l234 277h200z" />
    <glyph glyph-name="Otilde" unicode="&#xd5;" 
d="M1473 680q0 -192 -92.5 -353.5t-253 -255.5t-351.5 -94q-143 0 -272 55.5t-221.5 149.5t-146.5 224t-54 274q0 192 91.5 353.5t251.5 256t351 94.5q143 0 272.5 -55.5t222.5 -150t147.5 -225t54.5 -273.5zM1165 680q0 191 -103.5 311.5t-285.5 120.5q-181 0 -284 -120.5
t-103 -311.5t102.5 -310.5t284.5 -119.5t285.5 119.5t103.5 310.5zM885 1468q-34 0 -70 15t-60.5 33.5t-52 33.5t-47.5 15q-59 0 -98 -99l-94 47q13 38 30.5 72t42.5 67.5t60 53.5t74 20q44 0 88 -24.5t80.5 -49t60.5 -24.5q60 0 98 98l95 -45q-13 -38 -30.5 -72
t-42.5 -67.5t-60 -53.5t-74 -20z" />
    <glyph glyph-name="Odieresis" unicode="&#xd6;" 
d="M1473 680q0 -192 -92.5 -353.5t-253 -255.5t-351.5 -94q-143 0 -272 55.5t-221.5 149.5t-146.5 224t-54 274q0 192 91.5 353.5t251.5 256t351 94.5q143 0 272.5 -55.5t222.5 -150t147.5 -225t54.5 -273.5zM1165 680q0 191 -103.5 311.5t-285.5 120.5q-181 0 -284 -120.5
t-103 -311.5t102.5 -310.5t284.5 -119.5t285.5 119.5t103.5 310.5zM1079 1475h-225v213h225v-213zM698 1475h-223v213h223v-213z" />
    <glyph glyph-name="multiply" unicode="&#xd7;" horiz-adv-x="1026" 
d="M934 221l-152 -151l-270 268l-268 -268l-152 151l268 268l-268 271l152 151l268 -268l270 268l152 -151l-268 -271z" />
    <glyph glyph-name="Oslash" unicode="&#xd8;" 
d="M1473 682q0 -192 -92.5 -354t-253 -256.5t-351.5 -94.5q-257 0 -450 166l-164 -166l-80 78l166 168q-79 94 -122.5 212t-43.5 247q0 192 91.5 353t251.5 255t351 94q259 0 453 -167l164 167l80 -77l-166 -168q166 -200 166 -457zM1034 1020q-102 92 -258 92
q-182 0 -284.5 -119.5t-102.5 -310.5q0 -148 62 -254zM1165 682q0 146 -61 250l-584 -590q102 -92 256 -92q182 0 285.5 120.5t103.5 311.5z" />
    <glyph glyph-name="Ugrave" unicode="&#xd9;" horiz-adv-x="1556" 
d="M1393 567q0 -118 -44.5 -225t-123.5 -188t-195 -129t-252 -48q-180 0 -322 82t-217 216t-75 292v797h307v-797q0 -145 85.5 -230t221.5 -85t221.5 85t85.5 230v797h308v-797zM877 1473h-189l-297 272h297z" />
    <glyph glyph-name="Uacute" unicode="&#xda;" horiz-adv-x="1556" 
d="M1393 567q0 -118 -44.5 -225t-123.5 -188t-195 -129t-252 -48q-180 0 -322 82t-217 216t-75 292v797h307v-797q0 -145 85.5 -230t221.5 -85t221.5 85t85.5 230v797h308v-797zM1167 1745l-297 -272h-188l188 272h297z" />
    <glyph glyph-name="Ucircumflex" unicode="&#xdb;" horiz-adv-x="1556" 
d="M1393 567q0 -118 -44.5 -225t-123.5 -188t-195 -129t-252 -48q-180 0 -322 82t-217 216t-75 292v797h307v-797q0 -145 85.5 -230t221.5 -85t221.5 85t85.5 230v797h308v-797zM1114 1458h-225l-111 133l-112 -133h-224l234 277h201z" />
    <glyph glyph-name="Udieresis" unicode="&#xdc;" horiz-adv-x="1556" 
d="M1393 567q0 -118 -44.5 -225t-123.5 -188t-195 -129t-252 -48q-180 0 -322 82t-217 216t-75 292v797h307v-797q0 -145 85.5 -230t221.5 -85t221.5 85t85.5 230v797h308v-797zM1079 1475h-223v213h223v-213zM700 1475h-223v213h223v-213z" />
    <glyph glyph-name="Yacute" unicode="&#xdd;" horiz-adv-x="1234" 
d="M1235 1364l-463 -827v-537h-307v537l-465 827h307l311 -557l310 557h307zM1051 1745l-297 -272h-189l189 272h297z" />
    <glyph glyph-name="Thorn" unicode="&#xde;" horiz-adv-x="1404" 
d="M1364 698q0 -187 -131.5 -318.5t-331.5 -131.5h-409v-248h-308v1364h308v-217h409q133 0 239.5 -61.5t165 -163.5t58.5 -224zM1049 698q0 85 -58 143t-139 58h-360v-405h360q80 0 138.5 59.5t58.5 144.5z" />
    <glyph glyph-name="germandbls" unicode="&#xdf;" horiz-adv-x="1325" 
d="M1243 285q0 -141 -107.5 -224.5t-297.5 -83.5q-54 0 -129 15.5t-129 40.5l51 200q101 -38 203 -38q61 0 92.5 21.5t31.5 53.5q0 35 -25 59.5t-104 65.5q-134 69 -179.5 135t-45.5 160q0 41 20.5 79.5t50 69t59.5 60.5t50.5 67.5t20.5 77.5q0 70 -40.5 107t-117.5 37
q-65 0 -103 -37.5t-38 -103.5v-1047h-295v784h-129v191h129v61q0 176 118.5 277.5t313.5 101.5q108 0 197 -30t144.5 -80.5t85.5 -113t30 -130.5q0 -64 -20.5 -117t-50 -87.5t-59.5 -62.5t-50.5 -54t-20.5 -50q0 -30 17 -49t67 -45q75 -37 116.5 -63t78 -62.5t51 -80.5
t14.5 -105z" />
    <glyph glyph-name="agrave" unicode="&#xe0;" horiz-adv-x="1077" 
d="M975 0h-279v106q-101 -122 -288 -122q-147 0 -241.5 85.5t-94.5 211.5q0 144 84 219t239 75h287v74q0 78 -47.5 108.5t-175.5 30.5q-137 0 -307 -20l-23 213q194 35 358 35q232 0 360 -92.5t128 -284.5v-639zM682 367v26h-180q-137 0 -137 -106q0 -103 137 -103
q82 0 131 51t49 132zM610 1128h-188l-297 273h297z" />
    <glyph glyph-name="aacute" unicode="&#xe1;" horiz-adv-x="1077" 
d="M975 0h-279v106q-101 -122 -288 -122q-147 0 -241.5 85.5t-94.5 211.5q0 144 84 219t239 75h287v74q0 78 -47.5 108.5t-175.5 30.5q-137 0 -307 -20l-23 213q194 35 358 35q232 0 360 -92.5t128 -284.5v-639zM682 367v26h-180q-137 0 -137 -106q0 -103 137 -103
q82 0 131 51t49 132zM862 1401l-297 -273h-188l188 273h297z" />
    <glyph glyph-name="acircumflex" unicode="&#xe2;" horiz-adv-x="1077" 
d="M975 0h-279v106q-101 -122 -288 -122q-147 0 -241.5 85.5t-94.5 211.5q0 144 84 219t239 75h287v74q0 78 -47.5 108.5t-175.5 30.5q-137 0 -307 -20l-23 213q194 35 358 35q232 0 360 -92.5t128 -284.5v-639zM682 367v26h-180q-137 0 -137 -106q0 -103 137 -103
q82 0 131 51t49 132zM885 1124h-226l-110 133l-113 -133h-223l233 277h201z" />
    <glyph glyph-name="atilde" unicode="&#xe3;" horiz-adv-x="1077" 
d="M975 0h-279v106q-101 -122 -288 -122q-147 0 -241.5 85.5t-94.5 211.5q0 144 84 219t239 75h287v74q0 78 -47.5 108.5t-175.5 30.5q-137 0 -307 -20l-23 213q194 35 358 35q232 0 360 -92.5t128 -284.5v-639zM682 367v26h-180q-137 0 -137 -106q0 -103 137 -103
q82 0 131 51t49 132zM657 1114q-44 0 -88 24t-80.5 48t-60.5 24q-60 0 -98 -98l-94 47q18 53 42 96.5t68 80t96 36.5q34 0 70 -15.5t60.5 -33.5t52 -33.5t47.5 -15.5q60 0 98 98l94 -45q-13 -38 -30.5 -72t-42.5 -67.5t-60 -53.5t-74 -20z" />
    <glyph glyph-name="adieresis" unicode="&#xe4;" horiz-adv-x="1077" 
d="M975 0h-279v106q-101 -122 -288 -122q-147 0 -241.5 85.5t-94.5 211.5q0 144 84 219t239 75h287v74q0 78 -47.5 108.5t-175.5 30.5q-137 0 -307 -20l-23 213q194 35 358 35q232 0 360 -92.5t128 -284.5v-639zM682 367v26h-180q-137 0 -137 -106q0 -103 137 -103
q82 0 131 51t49 132zM834 1147h-224v213h224v-213zM455 1147h-224v213h224v-213z" />
    <glyph glyph-name="aring" unicode="&#xe5;" horiz-adv-x="1077" 
d="M975 0h-279v106q-101 -122 -288 -122q-147 0 -241.5 85.5t-94.5 211.5q0 144 84 219t239 75h287v74q0 78 -47.5 108.5t-175.5 30.5q-137 0 -307 -20l-23 213q194 35 358 35q232 0 360 -92.5t128 -284.5v-639zM682 367v26h-180q-137 0 -137 -106q0 -103 137 -103
q82 0 131 51t49 132zM727 1321q0 -91 -64 -155t-155 -64t-155 64t-64 155t64 155t155 64t155 -64t64 -155zM616 1321q0 47 -29 82t-79 35t-78.5 -34.5t-28.5 -82.5q0 -47 29 -82t78 -35t78.5 35t29.5 82z" />
    <glyph glyph-name="ae" unicode="&#xe6;" horiz-adv-x="1726" 
d="M1649 414h-682q0 -93 74.5 -149t220.5 -56q140 0 280 39l51 -209q-149 -55 -336 -55q-267 0 -421 135q-125 -135 -351 -135q-188 0 -300.5 90.5t-112.5 220.5q0 144 84 219.5t239 75.5h287v59q0 78 -47.5 108.5t-175.5 30.5q-137 0 -307 -20l-23 213q194 35 358 35
q254 0 375 -109q131 109 314 109q217 0 345 -142.5t128 -381.5v-78zM1372 596q-9 93 -59 146t-137 53q-82 0 -138 -51t-69 -148h403zM682 367v39h-180q-135 0 -135 -111q0 -52 34 -81.5t101 -29.5q82 0 131 51t49 132z" />
    <glyph glyph-name="ccedilla" unicode="&#xe7;" horiz-adv-x="995" 
d="M893 35q-125 -51 -264 -51q-249 0 -406 147.5t-157 368.5t157 368.5t406 147.5q141 0 264 -51l-47 -209q-101 28 -193 28q-146 0 -220.5 -77t-74.5 -207t75 -208.5t220 -78.5q81 0 193 31zM903 -356q0 -99 -91.5 -162.5t-233.5 -63.5q-109 0 -207 33l35 115
q74 -19 151 -19q76 0 116 28t40 73q0 82 -127 82q-17 0 -71.5 -2.5t-90.5 -3.5l61 276h156q-12 -48 -27 -95t-16 -50q25 2 57 2q115 0 181.5 -56.5t66.5 -156.5z" />
    <glyph glyph-name="egrave" unicode="&#xe8;" horiz-adv-x="1110" 
d="M1032 414h-682q0 -93 74.5 -149t220.5 -56q141 0 281 39l51 -209q-149 -55 -336 -55q-274 0 -424.5 139.5t-150.5 376.5q0 102 34.5 195.5t96.5 164.5t156 113.5t206 42.5q217 0 345 -142.5t128 -381.5v-78zM756 596q-9 93 -59.5 146t-137.5 53q-82 0 -138 -51t-69 -148
h404zM645 1128h-188l-297 273h297z" />
    <glyph glyph-name="eacute" unicode="&#xe9;" horiz-adv-x="1110" 
d="M1032 414h-682q0 -93 74.5 -149t220.5 -56q141 0 281 39l51 -209q-149 -55 -336 -55q-274 0 -424.5 139.5t-150.5 376.5q0 102 34.5 195.5t96.5 164.5t156 113.5t206 42.5q217 0 345 -142.5t128 -381.5v-78zM756 596q-9 93 -59.5 146t-137.5 53q-82 0 -138 -51t-69 -148
h404zM940 1401l-297 -273h-188l188 273h297z" />
    <glyph glyph-name="ecircumflex" unicode="&#xea;" horiz-adv-x="1110" 
d="M1032 414h-682q0 -93 74.5 -149t220.5 -56q141 0 281 39l51 -209q-149 -55 -336 -55q-274 0 -424.5 139.5t-150.5 376.5q0 102 34.5 195.5t96.5 164.5t156 113.5t206 42.5q217 0 345 -142.5t128 -381.5v-78zM756 596q-9 93 -59.5 146t-137.5 53q-82 0 -138 -51t-69 -148
h404zM893 1124h-225l-111 133l-113 -133h-223l234 277h200z" />
    <glyph glyph-name="edieresis" unicode="&#xeb;" horiz-adv-x="1110" 
d="M1032 414h-682q0 -93 74.5 -149t220.5 -56q141 0 281 39l51 -209q-149 -55 -336 -55q-274 0 -424.5 139.5t-150.5 376.5q0 102 34.5 195.5t96.5 164.5t156 113.5t206 42.5q217 0 345 -142.5t128 -381.5v-78zM756 596q-9 93 -59.5 146t-137.5 53q-82 0 -138 -51t-69 -148
h404zM856 1147h-223v213h223v-213zM477 1147h-223v213h223v-213z" />
    <glyph glyph-name="igrave" unicode="&#xec;" horiz-adv-x="579" 
d="M436 0h-293v997h293v-997zM416 1128h-189l-297 273h297z" />
    <glyph glyph-name="iacute" unicode="&#xed;" horiz-adv-x="579" 
d="M436 0h-293v997h293v-997zM649 1401l-297 -273h-188l188 273h297z" />
    <glyph glyph-name="icircumflex" unicode="&#xee;" horiz-adv-x="579" 
d="M436 0h-293v997h293v-997zM625 1124h-226l-110 133l-113 -133h-223l233 277h201z" />
    <glyph glyph-name="idieresis" unicode="&#xef;" horiz-adv-x="579" 
d="M436 0h-293v997h293v-997zM588 1147h-223v213h223v-213zM209 1147h-223v213h223v-213z" />
    <glyph glyph-name="eth" unicode="&#xf0;" horiz-adv-x="1165" 
d="M1083 594q0 -124 -30.5 -230.5t-92.5 -193t-167 -136.5t-242 -50q-114 0 -208 45t-153.5 119t-91.5 165t-32 187q0 100 29 192t82 164.5t136 116t183 43.5q88 0 162 -41t122 -113q-22 129 -92 246l-84 -68l-37 47l90 70q-69 100 -192 207h278q35 -28 80 -76l90 72l37 -47
l-88 -68q102 -126 161.5 -296.5t59.5 -354.5zM788 500q0 131 -59 209.5t-158 78.5q-102 0 -157.5 -81.5t-55.5 -206.5t56 -208t157 -83q96 0 156.5 80.5t60.5 210.5z" />
    <glyph glyph-name="ntilde" unicode="&#xf1;" horiz-adv-x="1222" 
d="M1090 0h-295v575q0 84 -39 132.5t-119 48.5q-73 0 -137 -55.5t-64 -129.5v-571h-293v997h285v-149q47 69 140.5 118.5t197.5 49.5q163 0 243.5 -104.5t80.5 -288.5v-623zM737 1114q-44 0 -88 24t-80.5 48t-60.5 24q-60 0 -98 -98l-95 47q13 38 30.5 72t42.5 67.5t60 53.5
t74 20q34 0 70 -15.5t60.5 -33.5t52 -33.5t47.5 -15.5q60 0 98 98l94 -45q-13 -38 -30.5 -72t-42.5 -67.5t-60 -53.5t-74 -20z" />
    <glyph glyph-name="ograve" unicode="&#xf2;" horiz-adv-x="1171" 
d="M1106 500q0 -136 -65 -253.5t-185.5 -190t-269.5 -72.5t-269.5 72.5t-185.5 190t-65 253.5t65 253.5t185.5 190t269.5 72.5t269.5 -72.5t185.5 -190t65 -253.5zM811 500q0 132 -60 211.5t-165 79.5t-165.5 -79.5t-60.5 -211.5t60.5 -211.5t165.5 -79.5t165 79.5t60 211.5
zM655 1128h-188l-297 273h297z" />
    <glyph glyph-name="oacute" unicode="&#xf3;" horiz-adv-x="1171" 
d="M1106 500q0 -136 -65 -253.5t-185.5 -190t-269.5 -72.5t-269.5 72.5t-185.5 190t-65 253.5t65 253.5t185.5 190t269.5 72.5t269.5 -72.5t185.5 -190t65 -253.5zM811 500q0 132 -60 211.5t-165 79.5t-165.5 -79.5t-60.5 -211.5t60.5 -211.5t165.5 -79.5t165 79.5t60 211.5
zM977 1401l-297 -273h-188l188 273h297z" />
    <glyph glyph-name="ocircumflex" unicode="&#xf4;" horiz-adv-x="1171" 
d="M1106 500q0 -136 -65 -253.5t-185.5 -190t-269.5 -72.5t-269.5 72.5t-185.5 190t-65 253.5t65 253.5t185.5 190t269.5 72.5t269.5 -72.5t185.5 -190t65 -253.5zM811 500q0 132 -60 211.5t-165 79.5t-165.5 -79.5t-60.5 -211.5t60.5 -211.5t165.5 -79.5t165 79.5t60 211.5
zM928 1124h-226l-110 133l-113 -133h-223l233 277h201z" />
    <glyph glyph-name="otilde" unicode="&#xf5;" horiz-adv-x="1171" 
d="M1106 500q0 -136 -65 -253.5t-185.5 -190t-269.5 -72.5t-269.5 72.5t-185.5 190t-65 253.5t65 253.5t185.5 190t269.5 72.5t269.5 -72.5t185.5 -190t65 -253.5zM811 500q0 132 -60 211.5t-165 79.5t-165.5 -79.5t-60.5 -211.5t60.5 -211.5t165.5 -79.5t165 79.5t60 211.5
zM688 1114q-44 0 -88 24t-80.5 48t-60.5 24q-61 0 -99 -98l-94 47q13 38 30.5 72t42.5 67.5t60 53.5t74 20q44 0 88 -24.5t80.5 -49t60.5 -24.5q61 0 99 98l94 -45q-13 -38 -30.5 -72t-42.5 -67.5t-60 -53.5t-74 -20z" />
    <glyph glyph-name="odieresis" unicode="&#xf6;" horiz-adv-x="1171" 
d="M1106 500q0 -136 -65 -253.5t-185.5 -190t-269.5 -72.5t-269.5 72.5t-185.5 190t-65 253.5t65 253.5t185.5 190t269.5 72.5t269.5 -72.5t185.5 -190t65 -253.5zM811 500q0 132 -60 211.5t-165 79.5t-165.5 -79.5t-60.5 -211.5t60.5 -211.5t165.5 -79.5t165 79.5t60 211.5
zM893 1147h-223v213h223v-213zM514 1147h-223v213h223v-213z" />
    <glyph glyph-name="divide" unicode="&#xf7;" horiz-adv-x="1181" 
d="M1079 391h-977v197h977v-197zM739 838q0 -62 -44 -106t-105 -44t-104.5 44t-43.5 106q0 61 43 104t105 43t105.5 -43t43.5 -104zM739 141q0 -61 -43.5 -104t-105.5 -43t-105 43t-43 104t43 104.5t105 43.5t105.5 -43.5t43.5 -104.5z" />
    <glyph glyph-name="oslash" unicode="&#xf8;" horiz-adv-x="1171" 
d="M1106 500q0 -136 -65 -253.5t-185.5 -190t-269.5 -72.5q-199 0 -338 120l-123 -120l-59 59l122 121q-122 144 -122 336q0 136 65 253.5t185.5 190t269.5 72.5q198 0 340 -123l123 123l57 -60l-123 -120q123 -145 123 -336zM811 500q0 74 -23 141l-362 -358
q61 -74 160 -74q105 0 165 79.5t60 211.5zM745 717q-59 71 -159 71q-105 0 -165.5 -78t-60.5 -210q0 -77 23 -144z" />
    <glyph glyph-name="ugrave" unicode="&#xf9;" horiz-adv-x="1224" 
d="M1081 0h-286v150q-47 -69 -139.5 -117.5t-196.5 -48.5q-164 0 -245 104t-81 287v622h295v-575q0 -83 39 -130.5t119 -47.5q74 0 137 54t63 128v571h295v-997zM692 1128h-188l-297 273h297z" />
    <glyph glyph-name="uacute" unicode="&#xfa;" horiz-adv-x="1224" 
d="M1081 0h-286v150q-47 -69 -139.5 -117.5t-196.5 -48.5q-164 0 -245 104t-81 287v622h295v-575q0 -83 39 -130.5t119 -47.5q74 0 137 54t63 128v571h295v-997zM989 1401l-297 -273h-188l188 273h297z" />
    <glyph glyph-name="ucircumflex" unicode="&#xfb;" horiz-adv-x="1224" 
d="M1081 0h-286v150q-47 -69 -139.5 -117.5t-196.5 -48.5q-164 0 -245 104t-81 287v622h295v-575q0 -83 39 -130.5t119 -47.5q74 0 137 54t63 128v571h295v-997zM940 1124h-225l-111 133l-112 -133h-224l234 277h200z" />
    <glyph glyph-name="udieresis" unicode="&#xfc;" horiz-adv-x="1224" 
d="M1081 0h-286v150q-47 -69 -139.5 -117.5t-196.5 -48.5q-164 0 -245 104t-81 287v622h295v-575q0 -83 39 -130.5t119 -47.5q74 0 137 54t63 128v571h295v-997zM907 1147h-223v213h223v-213zM528 1147h-223v213h223v-213z" />
    <glyph glyph-name="yacute" unicode="&#xfd;" horiz-adv-x="1038" 
d="M1024 997l-485 -1331h-285l121 336l-371 995h285l229 -680l221 680h285zM899 1401l-297 -273h-188l188 273h297z" />
    <glyph glyph-name="thorn" unicode="&#xfe;" horiz-adv-x="1226" 
d="M1161 500q0 -100 -29 -192t-82 -164.5t-136 -116t-183 -43.5q-176 0 -293 145v-461h-295v1696h295v-498q57 68 133.5 109t159.5 41q100 0 183 -45t136 -119t82 -165t29 -187zM868 500q0 125 -55.5 206.5t-157.5 81.5q-96 0 -156.5 -79t-60.5 -209q0 -131 59 -211t158 -80
q101 0 157 83t56 208z" />
    <glyph glyph-name="ydieresis" unicode="&#xff;" horiz-adv-x="1038" 
d="M1024 997l-485 -1331h-285l121 336l-371 995h285l229 -680l221 680h285zM825 1147h-223v213h223v-213zM446 1147h-223v213h223v-213z" />
    <glyph glyph-name="dotlessi" unicode="&#x131;" horiz-adv-x="579" 
d="M436 0h-293v997h293v-997z" />
    <glyph glyph-name="Lslash" unicode="&#x141;" horiz-adv-x="1230" 
d="M1190 0h-965v526l-104 -84l-76 99l180 143v680h307v-438l177 137l75 -96l-252 -199v-504h658v-264z" />
    <glyph glyph-name="lslash" unicode="&#x142;" horiz-adv-x="821" 
d="M739 967l-254 -203v-402q0 -85 21 -116t86 -31t90 4v-227q-78 -10 -147 -10q-155 0 -250 85.5t-95 256.5v208l-114 -90l-76 97l190 151v674h295v-442l179 141z" />
    <glyph glyph-name="OE" unicode="&#x152;" horiz-adv-x="2076" 
d="M1954 0h-1176q-192 0 -351.5 88.5t-252 245.5t-92.5 348t92.5 348t252 245.5t351.5 88.5h1176v-264h-694v-264h657v-265h-657v-307h694v-264zM952 272v820h-174q-184 0 -286.5 -111t-102.5 -299t102.5 -299t286.5 -111h174z" />
    <glyph glyph-name="oe" unicode="&#x153;" horiz-adv-x="1857" 
d="M1780 414h-684q0 -93 74.5 -149t220.5 -56q142 0 282 39l51 -209q-149 -55 -338 -55q-281 0 -434 147q-150 -147 -366 -147q-149 0 -269.5 72.5t-185.5 190t-65 253.5t65 253.5t185.5 190t269.5 72.5q218 0 366 -148q138 148 355 148t345 -142.5t128 -381.5v-78zM811 500
q0 132 -60 211.5t-165 79.5t-166.5 -79.5t-61.5 -211.5t61.5 -211.5t166.5 -79.5t165 79.5t60 211.5zM1501 596q-9 94 -58 146.5t-136 52.5q-82 0 -138 -51t-69 -148h401z" />
    <glyph glyph-name="Scaron" unicode="&#x160;" horiz-adv-x="1361" 
d="M1264 387q0 -125 -75 -219t-206 -142.5t-299 -48.5q-279 0 -571 115l59 240q287 -94 508 -94q276 0 276 141q0 51 -44 78t-195 83l-88 33q-74 28 -123 48t-102 46t-86 49.5t-64.5 54.5t-48.5 65t-27 76.5t-10 93.5q0 190 137.5 284t425.5 94q126 0 262.5 -17t233.5 -50
l-43 -252q-89 25 -214 40t-235 15q-145 0 -202.5 -23t-57.5 -83q0 -55 56 -88.5t236 -102.5q45 -17 69 -26q196 -77 254 -108q109 -60 146 -143q28 -63 28 -159zM1057 1735l-234 -277h-200l-238 277h225l111 -133l113 133h223z" />
    <glyph glyph-name="scaron" unicode="&#x161;" horiz-adv-x="1009" 
d="M938 291q0 -139 -118.5 -223t-311.5 -84q-200 0 -426 90l55 202q213 -71 369 -71q85 0 116 18.5t31 52.5q0 33 -28 52t-123 57q-65 27 -96.5 40.5t-78.5 35.5t-68 35t-50 34t-41 38.5t-25.5 42t-17.5 51.5t-4 61q0 293 420 293q80 0 185 -14.5t179 -40.5l-39 -216
q-67 19 -159.5 34.5t-161.5 15.5q-83 0 -113.5 -14t-30.5 -44q0 -10 1.5 -18t7 -15.5t10.5 -12.5t17 -12t22 -12t29.5 -13t35.5 -14t45 -17.5t52 -20.5q68 -27 107.5 -44t80.5 -39t61.5 -42t38 -48t23.5 -60.5t6 -77.5zM868 1401l-233 -277h-201l-237 277h225l110 -133
l113 133h223z" />
    <glyph glyph-name="Ydieresis" unicode="&#x178;" horiz-adv-x="1234" 
d="M1235 1364l-463 -827v-537h-307v537l-465 827h307l311 -557l310 557h307zM920 1475h-226v213h226v-213zM539 1475h-224v213h224v-213z" />
    <glyph glyph-name="Zcaron" unicode="&#x17d;" horiz-adv-x="1323" 
d="M1241 0h-1139v276l746 824h-727v264h1093v-272l-741 -828h768v-264zM1020 1735l-234 -277h-200l-238 277h225l111 -133l113 133h223z" />
    <glyph glyph-name="zcaron" unicode="&#x17e;" horiz-adv-x="1132" 
d="M1010 0h-887v215l522 567h-479v215h835v-213l-534 -567h543v-217zM915 1401l-233 -277h-201l-237 277h225l111 -133l112 133h223z" />
    <glyph glyph-name="florin" unicode="&#x192;" horiz-adv-x="995" 
d="M995 1386l-69 -208q-51 10 -113 10q-121 0 -147 -141l-13 -70h181l-33 -193h-180l-134 -753q-31 -182 -134.5 -281.5t-274.5 -99.5q-75 0 -180 31l67 194q12 -2 24 -5t17.5 -4t14.5 -2t22 -1q125 0 147 141l136 780h-129l32 193h131l11 59q31 182 135 280.5t276 98.5
q114 0 213 -29z" />
    <glyph glyph-name="circumflex" unicode="&#x2c6;" horiz-adv-x="917" 
d="M795 1124h-226l-110 133l-113 -133h-223l233 277h201z" />
    <glyph glyph-name="caron" unicode="&#x2c7;" horiz-adv-x="917" 
d="M795 1401l-234 -277h-201l-237 277h225l111 -133l112 133h224z" />
    <glyph glyph-name="breve" unicode="&#x2d8;" horiz-adv-x="829" 
d="M707 1364q0 -118 -83.5 -185t-209.5 -67q-125 0 -208 66.5t-83 185.5h156q0 -59 35 -96t100 -37q67 0 101 34.5t34 98.5h158z" />
    <glyph glyph-name="dotaccent" unicode="&#x2d9;" horiz-adv-x="579" 
d="M436 1163h-293v252h293v-252z" />
    <glyph glyph-name="ring" unicode="&#x2da;" horiz-adv-x="684" 
d="M561 1321q0 -91 -64 -155t-155 -64t-155 64t-64 155t64 155t155 64t155 -64t64 -155zM451 1321q0 47 -29.5 82t-79.5 35t-78 -34.5t-28 -82.5q0 -47 28.5 -82t77.5 -35t79 35t30 82z" />
    <glyph glyph-name="ogonek" unicode="&#x2db;" horiz-adv-x="768" 
d="M645 -410q-120 -43 -229 -43q-131 0 -212 64t-81 164q0 56 43.5 120.5t101.5 104.5h183q-84 -84 -114 -133.5t-30 -91.5q0 -46 33 -73.5t88 -27.5q80 0 184 35z" />
    <glyph glyph-name="tilde" unicode="&#x2dc;" horiz-adv-x="874" 
d="M545 1114q-34 0 -70 15t-60.5 33t-52 33t-47.5 15q-60 0 -98 -98l-94 47q13 38 30.5 72t42.5 67.5t60 53.5t74 20q44 0 88 -24.5t80.5 -49t60.5 -24.5q60 0 98 98l95 -45q-13 -38 -30.5 -72t-42.5 -67.5t-60 -53.5t-74 -20z" />
    <glyph glyph-name="hungarumlaut" unicode="&#x2dd;" horiz-adv-x="1126" 
d="M1034 1401l-297 -273h-188l188 273h297zM606 1401l-295 -273h-188l188 273h295z" />
    <glyph glyph-name="pi" unicode="&#x3c0;" horiz-adv-x="1269" 
d="M1085 0h-729v172h432l-686 686l125 125l686 -688v434h172v-729z" />
    <glyph glyph-name="endash" unicode="&#x2013;" horiz-adv-x="1181" 
d="M1069 457h-956v239h956v-239z" />
    <glyph glyph-name="emdash" unicode="&#x2014;" horiz-adv-x="1640" 
d="M1528 457h-1415v239h1415v-239z" />
    <glyph glyph-name="quoteleft" unicode="&#x2018;" horiz-adv-x="606" 
d="M473 702h-319v320l165 342h136l-138 -342h156v-320z" />
    <glyph glyph-name="quoteright" unicode="&#x2019;" horiz-adv-x="606" 
d="M453 1044l-166 -342h-137l139 342h-156v320h320v-320z" />
    <glyph glyph-name="quotesinglbase" unicode="&#x201a;" horiz-adv-x="608" 
d="M455 0l-168 -342h-135l137 342h-156v319h322v-319z" />
    <glyph glyph-name="quotedblleft" unicode="&#x201c;" horiz-adv-x="1089" 
d="M473 702h-319v320l165 342h138l-138 -342h154v-320zM956 702h-319v320l166 342h135l-137 -342h155v-320z" />
    <glyph glyph-name="quotedblright" unicode="&#x201d;" horiz-adv-x="1087" 
d="M453 1044l-166 -342h-137l137 342h-154v320h320v-320zM934 1044l-166 -342h-137l139 342h-156v320h320v-320z" />
    <glyph glyph-name="quotedblbase" unicode="&#x201e;" horiz-adv-x="1087" 
d="M453 0l-166 -342h-137l137 342h-154v319h320v-319zM934 0l-166 -342h-137l139 342h-156v319h320v-319z" />
    <glyph glyph-name="dagger" unicode="&#x2020;" horiz-adv-x="980" 
d="M879 788l-330 80l82 -374l-111 -773h-59l-113 773l82 374l-328 -80v281l328 -78l-82 373h283l-82 -373l330 78v-281z" />
    <glyph glyph-name="daggerdbl" unicode="&#x2021;" horiz-adv-x="980" 
d="M879 -82l-328 80l80 -375h-283l82 375l-328 -80v283l328 -80l-82 373l82 374l-328 -80v281l328 -78l-82 373h283l-80 -373l328 78v-281l-328 80l80 -374l-80 -373l328 80v-283z" />
    <glyph glyph-name="bullet" unicode="&#x2022;" horiz-adv-x="628" 
d="M537 729q0 -92 -65.5 -156.5t-158.5 -64.5q-92 0 -156.5 64.5t-64.5 156.5t64.5 157.5t156.5 65.5t158 -65.5t66 -157.5z" />
    <glyph glyph-name="ellipsis" unicode="&#x2026;" horiz-adv-x="1875" 
d="M1722 0h-319v319h319v-319zM473 0h-319v319h319v-319zM1098 0h-320v319h320v-319z" />
    <glyph glyph-name="perthousand" unicode="&#x2030;" horiz-adv-x="2609" 
d="M2497 348q0 -158 -92 -264.5t-244 -106.5q-151 0 -242.5 106.5t-91.5 264.5t91 262.5t243 104.5t244 -104.5t92 -262.5zM1698 348q0 -158 -91.5 -264.5t-242.5 -106.5q-152 0 -244 106.5t-92 264.5t92 262.5t244 104.5t243 -104.5t91 -262.5zM752 1018
q0 -158 -91.5 -264.5t-242.5 -106.5q-152 0 -244 106.5t-92 264.5q0 157 92 261.5t244 104.5t243 -104t91 -262zM1372 1364l-756 -1364h-208l757 1364h207zM2298 348q0 52 -13 95t-45 72.5t-79 29.5t-79 -29.5t-44.5 -72t-12.5 -95.5q0 -83 33.5 -142t102.5 -59
q47 0 79 30.5t45 74t13 96.5zM1499 348q0 39 -7.5 72.5t-22.5 62.5t-42 45.5t-63 16.5q-47 0 -79 -29.5t-45 -72.5t-13 -95q0 -53 13 -96.5t45 -74t79 -30.5q69 0 102 58.5t33 142.5zM553 1018q0 39 -7.5 72t-22.5 61.5t-42 44.5t-63 16q-70 0 -103.5 -56t-33.5 -138
q0 -53 13 -96.5t45 -74t79 -30.5q69 0 102 58.5t33 142.5z" />
    <glyph glyph-name="guilsinglleft" unicode="&#x2039;" horiz-adv-x="817" 
d="M653 117l-125 -117l-467 498l467 499l125 -116l-358 -381z" />
    <glyph glyph-name="guilsinglright" unicode="&#x203a;" horiz-adv-x="817" 
d="M756 498l-467 -498l-125 117l358 383l-358 381l125 116z" />
    <glyph glyph-name="fraction" unicode="&#x2044;" horiz-adv-x="927" 
d="M928 1364l-809 -1364h-119l811 1364h117z" />
    <glyph glyph-name="Euro" unicode="&#x20ac;" horiz-adv-x="1470" 
d="M1358 1325l-43 -256q-165 43 -311 43q-178 0 -294 -65.5t-165 -180.5h344v-125h-375q-4 -40 -4 -59q0 -26 4 -66h375v-127h-340q52 -112 166 -175.5t289 -63.5q140 0 311 43l39 -252q-195 -64 -393 -64q-272 0 -469.5 142.5t-262.5 369.5h-188v127h164q-2 20 -2 66
q0 39 2 59h-164v125h186q63 230 261 374t473 144q122 0 203.5 -12t193.5 -47z" />
    <glyph glyph-name="trademark" unicode="&#x2122;" horiz-adv-x="1460" 
d="M1378 741h-133v375l-153 -260h-76l-158 260v-375h-133v623h129l199 -334l196 334h129v-623zM600 1241h-203v-500h-141v500h-205v123h549v-123z" />
    <glyph glyph-name="Omega" unicode="&#x2126;" horiz-adv-x="1267" 
d="M1165 506l-123 -125l-686 688v-434h-172v729h729v-172h-434z" />
    <glyph glyph-name="partialdiff" unicode="&#x2202;" horiz-adv-x="1175" 
d="M1104 868l-121 -120l-307 307v-971h-176v971l-305 -307l-123 120l516 516z" />
    <glyph glyph-name="Delta" unicode="&#x2206;" horiz-adv-x="1175" 
d="M1104 494l-516 -517l-516 517l121 120l307 -307v971h176v-971l305 307z" />
    <glyph glyph-name="product" unicode="&#x220f;" horiz-adv-x="1269" 
d="M1167 858l-686 -686h432v-172h-729v729h172v-434l686 688z" />
    <glyph glyph-name="summation" unicode="&#x2211;" horiz-adv-x="1269" 
d="M1167 858l-686 -686h432v-172h-729v729h172v-434l686 688z" />
    <glyph glyph-name="minus" unicode="&#x2212;" horiz-adv-x="749" 
d="M657 457h-565v239h565v-239z" />
    <glyph glyph-name="radical" unicode="&#x221a;" horiz-adv-x="1525" 
d="M1382 559h-970l307 -305l-121 -123l-516 516l516 516l121 -121l-307 -307h970v-176z" />
    <glyph glyph-name="infinity" unicode="&#x221e;" horiz-adv-x="1525" 
d="M1382 559h-970l307 -305l-121 -123l-516 516l516 516l121 -121l-307 -307h970v-176z" />
    <glyph glyph-name="integral" unicode="&#x222b;" horiz-adv-x="1269" 
d="M1085 0h-729v172h432l-686 686l125 125l686 -688v434h172v-729z" />
    <glyph glyph-name="approxequal" unicode="&#x2248;" horiz-adv-x="1267" 
d="M1083 635h-172v434l-686 -688l-123 125l686 686h-434v172h729v-729z" />
    <glyph glyph-name="notequal" unicode="&#x2260;" horiz-adv-x="1794" 
d="M1610 682h-682v-682h-682v1364h1364v-682z" />
    <glyph glyph-name="lessequal" unicode="&#x2264;" horiz-adv-x="1525" 
d="M1382 559h-970l307 -305l-121 -123l-516 516l516 516l121 -121l-307 -307h970v-176z" />
    <glyph glyph-name="greaterequal" unicode="&#x2265;" horiz-adv-x="1525" 
d="M1444 647l-516 -516l-121 123l307 305h-971v176h971l-307 307l121 121z" />
    <glyph glyph-name="lozenge" unicode="&#x25ca;" horiz-adv-x="1525" 
d="M1444 647l-516 -516l-121 123l307 305h-971v176h971l-307 307l121 121z" />
    <glyph glyph-name="fi" unicode="&#xfb01;" horiz-adv-x="1353" 
d="M754 1384l-33 -206q-54 10 -115 10q-121 0 -121 -141v-70h181v-193h-181v-784h-295v784h-129v193h129v59q0 182 86.5 280.5t258.5 98.5q107 0 219 -31zM1210 0h-292v997h292v-997zM1210 1163h-292v252h292v-252z" />
    <glyph glyph-name="fl" unicode="&#xfb02;" horiz-adv-x="1454" 
d="M754 1384l-33 -206q-54 10 -115 10q-121 0 -121 -141v-70h181v-193h-181v-784h-295v784h-129v193h129v59q0 182 86.5 280.5t258.5 98.5q107 0 219 -31zM1372 -8q-78 -10 -147 -10q-155 0 -249.5 85.5t-94.5 256.5v1040h293v-1002q0 -85 21.5 -116t86.5 -31t90 4v-227z
" />
    <glyph glyph-name="percent" horiz-adv-x="1810" 
d="M1698 348q0 -158 -91.5 -264.5t-242.5 -106.5q-152 0 -244 106.5t-92 264.5t92 262.5t244 104.5t243 -104.5t91 -262.5zM752 1018q0 -158 -91.5 -264.5t-242.5 -106.5q-152 0 -244 106.5t-92 264.5q0 157 92 261.5t244 104.5t243 -104t91 -262zM1372 1364l-756 -1364
h-206l755 1364h207zM553 1018q0 53 -12.5 95t-44 71.5t-78.5 29.5q-70 0 -103.5 -57t-33.5 -139q0 -53 13 -96.5t45 -74t79 -30.5q69 0 102 58.5t33 142.5zM1499 348q0 39 -7.5 72.5t-22.5 62.5t-42 45.5t-63 16.5q-47 0 -79 -29.5t-45 -72.5t-13 -95q0 -53 13 -96.5t45 -74
t79 -30.5q69 0 102 58.5t33 142.5z" />
    <glyph glyph-name="apple" horiz-adv-x="1794" 
d="M1610 682h-682v-682h-682v1364h1364v-682z" />
    <glyph glyph-name="_257" horiz-adv-x="1470" 
 />
    </font>
</defs>
</svg>
